<svg width="320" height="335" viewBox="0 0 320 335" fill="none" xmlns="http://www.w3.org/2000/svg">
<mask id="mask0_443_2712" style="mask-type:alpha" maskUnits="userSpaceOnUse" x="0" y="0" width="320" height="335">
<path d="M29.2692 125.772C17.284 109.831 20.5279 87.2206 36.5145 75.2697L127.554 7.21282C143.54 -4.7381 166.216 -1.50351 178.201 14.4375C190.186 30.3785 186.942 52.9893 170.956 64.9402L79.9165 132.997C63.9299 144.948 41.2543 141.713 29.2692 125.772Z" fill="#D9D9D9"/>
<path d="M73.5767 287.026C61.5916 271.085 64.8354 248.474 80.8221 236.523L116.513 209.842C132.5 197.891 155.175 201.126 167.16 217.067C179.146 233.008 175.902 255.618 159.915 267.569L124.224 294.25C108.237 306.201 85.5619 302.967 73.5767 287.026Z" fill="#D9D9D9"/>
<path d="M167.076 213.9C155.091 197.959 158.335 175.349 174.322 163.398L253.138 104.478C269.125 92.5269 291.8 95.7615 303.785 111.702C315.771 127.643 312.527 150.254 296.54 162.205L217.724 221.125C201.737 233.076 179.062 229.841 167.076 213.9Z" fill="#D9D9D9"/>
<path d="M152.555 320.182C140.57 304.241 143.813 281.63 159.8 269.679L262.119 193.19C278.106 181.239 300.781 184.473 312.767 200.414C324.752 216.355 321.508 238.966 305.521 250.917L203.202 327.406C187.215 339.357 164.54 336.123 152.555 320.182Z" fill="#D9D9D9"/>
<path d="M7.23347 237.42C-4.75166 221.479 -1.50782 198.868 14.4788 186.917L211.928 39.313C227.914 27.3621 250.59 30.5966 262.575 46.5376C274.56 62.4786 271.316 85.0894 255.33 97.0404L57.8808 244.645C41.8942 256.596 19.2186 253.361 7.23347 237.42Z" fill="#D9D9D9"/>
</mask>
<g mask="url(#mask0_443_2712)">
<g clip-path="url(#clip0_443_2712)">
<rect width="328.142" height="335.185" transform="translate(-0.814453)" fill="url(#paint0_linear_443_2712)"/>
<rect width="328.142" height="335.185" transform="translate(-0.814453)" fill="white"/>
<path d="M358.669 104.049V30.021H244.955L252.254 35.6931L254.589 48.7826L261.158 51.9823L262.034 64.9263L264.37 74.2344L262.618 80.7791L266.705 90.0872L301.593 88.6328L349.619 104.049H358.669Z" fill="#D5D6D3"/>
<path d="M225.832 317.263L220.723 315.372C220.723 315.372 203.497 297.774 201.162 295.447C198.826 293.12 162.917 245.853 162.917 245.853L104.235 206.875L80.0028 192.477L57.2307 176.188L31.6852 157.28L22.3428 151.172V532.658H358.669V113.794C355.749 113.649 352.684 113.503 349.618 113.212C334.729 111.758 262.617 99.8321 259.26 97.9414C256.048 96.0507 248.604 84.2702 248.604 84.2702L241.597 63.1815L233.276 56.2005L217.365 64.9268L196.345 71.4715C196.345 71.4715 184.229 62.1635 182.331 61.7271C180.433 61.2908 152.552 62.1635 152.552 62.1635L150.217 64.4905L143.648 63.0361L140.582 64.9268L131.24 34.3846L125.255 30.6032V30.0215H22.3428V138.955C40.7356 150.59 88.0314 180.26 119.708 200.33C159.705 225.782 183.499 249.489 184.375 252.252C185.251 255.015 211.818 287.012 211.818 287.012L233.276 320.899H228.167L225.832 317.263Z" fill="#EBEDED"/>
<path d="M125.694 175.461L110.95 131.539L139.269 122.958L142.773 113.213L145.546 112.05L156.056 141.283L152.261 142.447L153.283 144.192L148.758 145.792L150.071 148.991L156.932 146.519L157.37 148.991L154.743 150.3L157.808 161.499L131.241 169.207L130.073 173.861L125.694 175.461Z" fill="white"/>
<path d="M107.301 119.902L98.3965 87.6148L114.6 82.6699L119.125 95.9049L116.059 105.94L118.541 116.412L107.301 119.902Z" fill="white"/>
<path d="M98.542 70.4549L107.3 58.8198L110.22 70.4549L99.7098 73.5091L98.542 70.4549Z" fill="white"/>
<path d="M45.262 56.0559L43.6562 49.802L66.5743 31.7676L77.9603 40.6393V46.0206L45.262 56.0559Z" fill="white"/>
<path d="M42.0492 57.6558L41.3193 53.8744L42.9251 53.5835L43.6549 56.9286L42.0492 57.6558Z" fill="white"/>
<path d="M37.2334 64.2009L39.8609 61.1467L38.2552 60.5649L37.2334 64.2009Z" fill="white"/>
<path d="M82.3397 40.9299L81.4639 33.2216L83.7995 33.0762L84.5293 40.4936L82.3397 40.9299Z" fill="white"/>
<path d="M59.8588 150.446L29.2041 127.03L36.7948 115.395L64.238 147.682L59.8588 150.446Z" fill="white"/>
<path d="M104.965 170.37L88.0318 159.607L85.1123 151.463L103.213 146.954L109.782 169.352L104.965 170.37Z" fill="white"/>
<path d="M73.1438 158.59L65.1152 154.082L70.5163 152.045L75.6254 157.863L73.1438 158.59Z" fill="white"/>
<path d="M75.77 156.262L71.9746 151.753L75.77 150.735L78.5435 155.389L75.77 156.262Z" fill="white"/>
<path d="M122.92 184.916L116.06 172.553L119.125 171.535L123.942 184.625L122.92 184.916Z" fill="white"/>
<path d="M148.174 201.059L145.108 191.461L151.969 189.57L154.889 198.732L148.174 201.059Z" fill="white"/>
<path d="M153.429 180.406L149.634 168.48L165.253 163.681L167.589 170.371L165.399 176.479L153.429 180.406Z" fill="white"/>
<path d="M197.367 204.694L194.01 195.095L199.703 193.35L203.06 202.512L197.367 204.694Z" fill="white"/>
<path d="M189.485 207.311L187.879 203.094L192.112 198.73L194.156 205.13L189.485 207.311Z" fill="white"/>
<path d="M220.14 184.041L217.513 174.151L223.644 171.97L227.147 182.005L220.14 184.041Z" fill="white"/>
<path d="M249.334 255.452L257.363 254.289L233.569 196.986L216.052 203.531L217.512 206.73L221.015 206.003L222.183 208.766L225.686 207.894L230.357 219.674L225.102 223.747L243.349 264.76L251.816 262.433L249.334 255.452Z" fill="white"/>
<path d="M268.604 339.952C268.604 342.716 270.647 345.043 273.275 345.624L270.793 352.315L289.478 359.15L294.003 345.624L279.844 341.261C279.99 340.825 279.99 340.389 279.99 340.098C279.99 336.898 277.362 334.426 274.297 334.426C271.085 334.28 268.604 336.898 268.604 339.952Z" fill="white"/>
<path d="M253.713 338.642L237.948 325.698L236.78 321.771L246.415 320.608L249.626 330.643L261.158 331.08L259.552 340.678L253.713 338.642Z" fill="white"/>
<path d="M48.0351 336.607L47.4512 329.48L52.8522 327.008L53.2902 335.734L48.0351 336.607Z" fill="white"/>
<path d="M66.1361 344.898L65.4062 328.027L86.1347 329.918L85.4048 334.572L82.7773 334.718L82.6313 337.045L79.2739 337.626L79.1279 345.189L66.1361 344.898Z" fill="white"/>
<path d="M87.8867 303.884L80.8799 291.085L85.4051 288.758L93.7257 300.975L87.8867 303.884Z" fill="white"/>
<path d="M109.198 282.795L140.436 250.217L132.262 243.527L101.169 274.505L109.198 282.795Z" fill="white"/>
<path d="M155.181 259.525L143.649 248.617L146.861 244.836L158.539 256.035L155.181 259.525Z" fill="white"/>
<path d="M158.538 282.504L151.969 273.777L158.976 267.669L169.34 269.269L171.821 271.741L158.538 282.504Z" fill="white"/>
<path d="M177.661 279.888L161.604 288.759L168.61 302.285C164.815 304.176 162.187 308.103 162.187 312.466C162.187 318.72 167.297 323.956 173.719 323.956C179.996 323.956 185.251 318.865 185.251 312.466C185.251 309.703 184.23 307.23 182.624 305.194L188.901 303.012L177.661 279.888Z" fill="white"/>
<path d="M157.225 307.664C159.321 307.664 161.02 305.971 161.02 303.883C161.02 301.795 159.321 300.102 157.225 300.102C155.129 300.102 153.43 301.795 153.43 303.883C153.43 305.971 155.129 307.664 157.225 307.664Z" fill="white"/>
<path d="M255.32 291.084L251.232 280.031L266.852 275.377L270.501 286.43L255.32 291.084Z" fill="white"/>
<path d="M309.768 247.599L298.674 221.857L310.206 216.912L326.993 229.274L329.62 240.764L309.768 247.599Z" fill="white"/>
<path d="M271.523 220.401L257.363 187.822L274.15 182.005L277.362 188.986L276.632 200.912L281.011 211.238L277.508 212.838L278.676 214.729L276.194 215.892L277.216 218.219L271.523 220.401Z" fill="white"/>
<path d="M286.997 255.889L281.742 243.527L285.1 242.073L302.325 246.727L303.638 249.781L286.997 255.889Z" fill="white"/>
<path d="M56.3558 265.197L51.6846 254.289L66.72 248.472L70.9532 259.089L56.3558 265.197Z" fill="white"/>
<path d="M51.0999 252.834L46.4287 242.071L61.4641 236.108L65.6974 246.725L51.0999 252.834Z" fill="white"/>
<path d="M42.9268 233.927L45.7003 240.472L60.2978 234.364L57.5242 227.237C52.7071 229.564 47.8899 231.746 42.9268 233.927Z" fill="white"/>
<path d="M67.596 288.467L65.9902 284.249L70.3695 282.795L71.8292 286.867L67.596 288.467Z" fill="white"/>
<path d="M54.8958 106.522L50.5166 101.14L54.4579 98.668L57.8153 103.322L54.8958 106.522Z" fill="white"/>
<path d="M97.3753 43.9841L114.162 39.0392L117.082 40.639L119.417 40.2027L117.812 32.0581L96.0615 36.5667L97.3753 43.9841Z" fill="white"/>
<path d="M80.4412 85.7241L78.6895 81.5064L83.3606 78.4522L91.8272 75.3979L92.849 82.6699L80.4412 85.7241Z" fill="white"/>
<path d="M178.245 107.25L179.851 94.8877L230.504 103.323L228.168 114.522L198.974 109.432L200.287 99.8326L194.886 98.6691L193.426 105.068L187.442 104.05L186.274 108.704L178.245 107.25Z" fill="white"/>
<path d="M158.977 69.0003L181.019 67.5459L182.333 81.6535L159.852 82.6715L158.977 69.0003Z" fill="white"/>
<path d="M194.01 171.099L192.259 166.445L195.47 165.281L197.222 170.081L194.01 171.099Z" fill="white"/>
<path d="M198.242 61.2903L215.029 54.7456L219.263 42.6742L224.81 34.3842V30.021H138.977L143.794 54.7456L166.712 53.873L184.375 54.7456L198.242 61.2903Z" fill="#D5D6D3"/>
<path d="M215.469 350.568L217.221 349.405C217.367 349.259 217.367 349.259 217.367 349.114V343.151L210.214 316.972L211.528 315.954C217.367 321.189 222.33 325.407 223.79 326.716C230.212 344.169 233.278 350.423 236.635 353.622L235.468 354.349L215.031 354.059L215.469 350.568Z" fill="#D6D9D9"/>
<path d="M253.859 120.192L257.509 130.227L230.357 122.81L230.941 116.701L253.859 120.192Z" fill="#D6D9D9"/>
<path d="M231.088 115.975L231.526 112.048L251.67 114.521L253.422 119.32L231.088 115.975Z" fill="#D6D9D9"/>
<path d="M291.813 145.063C291.813 145.208 291.813 145.354 291.813 145.354C291.813 145.499 291.959 145.499 292.105 145.499L303.345 147.244C303.491 147.244 303.783 147.099 303.783 146.953L305.389 139.827L309.33 140.409L307.14 154.807C307.14 154.953 307.14 155.098 307.286 155.098L309.33 157.28L308.892 163.097L289.185 161.061V160.916C287.58 158.589 285.828 155.971 284.076 153.353L288.018 149.426C288.164 149.28 288.164 149.28 288.164 149.135C288.164 148.99 288.164 148.99 288.018 148.844L281.303 141.281L282.325 136.336L293.127 137.936L291.813 145.063Z" fill="#D6D9D9"/>
<path d="M328.745 218.218C328.745 218.363 328.891 218.363 328.891 218.509C329.037 218.509 329.037 218.654 329.183 218.509L345.24 215.6L346.991 224.763L331.372 227.671C331.372 227.671 331.372 227.526 331.226 227.526L312.104 212.691L319.548 207.31L326.555 206.292L328.745 218.218Z" fill="#D6D9D9"/>
<path d="M286.704 312.027L283.639 304.9L288.748 302.428C288.894 302.428 289.04 302.282 289.04 302.137V301.991C288.894 301.846 288.748 301.701 288.456 301.846L283.347 304.318L276.34 288.175L295.609 281.775C301.447 295.301 305.681 304.9 305.973 305.627C305.973 305.773 306.119 305.918 306.265 306.064L286.704 312.027Z" fill="#D6D9D9"/>
<path d="M245.831 163.388L239.262 165.425C239.116 165.425 238.97 165.715 238.97 165.861C238.97 166.006 239.262 166.152 239.408 166.152L245.977 164.116L253.86 186.368L235.175 192.767L222.329 162.807L221.015 153.062L219.556 142.3L240.722 148.99L245.831 163.388Z" fill="#D6D9D9"/>
<path d="M179.413 138.663L185.544 154.079L177.807 156.842L171.822 141.135L179.413 138.663Z" fill="#D6D9D9"/>
<path d="M185.835 154.807L187.441 159.17L192.842 172.987L185.105 175.605L178.099 157.57L185.835 154.807Z" fill="#D6D9D9"/>
<path d="M285.828 259.086C287.725 263.595 289.769 267.958 291.521 272.176L285.098 274.212C284.952 274.212 284.952 274.358 284.806 274.358C284.806 274.503 284.806 274.503 284.806 274.648L288.163 283.084L276.047 287.156L266.705 265.486L285.828 259.086Z" fill="#D6D9D9"/>
<path d="M171.092 114.666L161.896 113.793C161.75 113.793 161.75 113.793 161.604 113.793L159.56 114.811L155.181 106.812L170.8 109.43L171.092 114.666Z" fill="#D6D9D9"/>
<path d="M337.796 305.191C334.146 311.444 330.789 319.298 327.723 327.588C321.447 321.334 309.623 309.408 307.141 305.918C306.995 305.627 306.703 305.336 306.703 305.191C306.411 304.463 302.178 294.719 296.339 281.339L319.257 273.63L330.205 297.046L338.088 304.318C338.088 304.609 337.942 304.9 337.796 305.191Z" fill="#D6D9D9"/>
<path d="M219.993 68.5618C222.767 67.5437 225.102 66.3802 227.292 65.2167C231.963 62.8897 234.445 61.7262 236.196 63.9077C238.678 66.962 244.955 92.5592 246.999 100.558C242.181 99.6857 237.656 98.8131 233.277 97.9404L234.153 90.523C234.153 90.2322 234.007 90.0867 233.861 90.0867C233.569 90.0867 233.423 90.2322 233.423 90.3776L232.547 97.6495C218.242 94.8862 206.71 92.7046 200.433 91.6866L203.498 73.7976C208.315 72.4886 215.176 70.3071 219.993 68.5618Z" fill="#D6D9D9"/>
<path d="M80.4421 117.138L58.5459 136.772L68.9101 148.553C69.0561 148.698 69.0561 148.844 68.9101 148.989L88.1788 138.081C88.1788 138.081 88.3247 138.081 88.4707 138.081L95.3315 138.518L109.053 133.864L107.885 130.228L107.593 129.501L101.317 110.012L80.4421 117.138Z" fill="#D6D9D9"/>
<path d="M36.0654 89.7953L40.5906 94.3039L41.1745 94.8856L44.24 97.9399C45.5538 97.0672 47.3055 95.9037 49.0572 94.5948L42.3423 86.4502L36.0654 89.7953Z" fill="#D6D9D9"/>
<path d="M43.5096 60.2712L86.8641 46.3091L95.9146 49.6542L97.5203 62.3074L90.8054 69.5793C88.9078 70.3065 82.3389 72.6335 81.1711 73.0698C80.2952 73.3607 73.2885 78.1602 65.2598 83.6869L59.2749 76.9967C59.1289 76.8512 58.9829 76.8512 58.8369 76.8512L50.0785 81.5053L43.9475 73.2153L43.8015 73.0698L35.627 68.4158L43.5096 60.2712Z" fill="#D6D9D9"/>
<path d="M45.554 36.2739L49.7873 41.6552L40.8828 48.7817L44.2402 37.5829C44.5322 37.1466 45.1161 36.7102 45.554 36.2739Z" fill="#D6D9D9"/>
<path d="M26.1387 53.7273C28.0363 51.982 30.08 50.0913 32.2696 48.0552L34.3133 50.3822L27.5984 55.4726L26.1387 53.7273Z" fill="#D6D9D9"/>
<path d="M28.1826 56.0537L34.8975 50.9634L36.2112 52.4178L29.6424 57.6536L28.1826 56.0537Z" fill="#D6D9D9"/>
<path d="M154.159 186.949L174.304 180.114C177.223 187.967 181.31 198.73 185.252 209.783L164.231 216.91L154.159 186.949Z" fill="#D6D9D9"/>
<path d="M189.484 209.347L211.089 201.929L230.357 243.67L205.688 253.851C202.33 244.252 195.761 226.508 189.484 209.347Z" fill="#D6D9D9"/>
<path d="M45.6991 328.024L44.8232 320.607L58.6908 315.807L61.3184 322.061L54.4576 324.533L45.6991 328.024Z" fill="#D6D9D9"/>
<path d="M122.775 303.3L112.118 292.683C111.972 292.537 111.681 292.537 111.535 292.683C111.389 292.828 111.389 293.119 111.535 293.264L122.337 304.027L117.666 311.299C117.666 311.299 117.666 311.299 117.666 311.444C117.666 311.444 117.666 311.444 117.666 311.59L120.877 329.188L99.4186 328.17L101.316 318.716C101.316 318.571 101.316 318.425 101.17 318.28L94.6015 314.353L90.6602 308.535L98.1049 302.427C98.2508 302.282 98.2508 302.136 98.2508 301.991L95.7693 296.028L106.863 288.61L111.827 283.52L117.666 288.61C117.811 288.756 118.103 288.756 118.249 288.61L130.073 277.266C130.219 277.121 130.219 277.121 130.219 276.975C130.219 276.83 130.219 276.83 130.073 276.684L124.234 270.721L134.015 260.832L146.131 271.885L140 276.248C140 276.248 139.854 276.248 139.854 276.393L122.775 303.3Z" fill="#D6D9D9"/>
<path d="M87.8873 237.27L98.3975 251.378L75.9174 266.067L65.1152 239.306L84.5299 231.744L87.8873 237.27Z" fill="#D6D9D9"/>
<path d="M31.3946 223.162L28.3291 216.326L51.831 206.146L62.4872 207.309L62.0493 221.126L39.2772 230.87L34.898 232.324L31.3946 223.162Z" fill="#D6D9D9"/>
<path d="M52.4145 301.555L58.2535 315.08L44.5318 319.88L38.5469 307.518C43.2181 305.482 47.8893 303.591 52.4145 301.555Z" fill="#D6D9D9"/>
<path d="M114.453 195.531L136.057 211.383C142.772 216.037 148.903 220.691 154.304 224.909L183.353 246.289L197.804 267.377L205.249 261.705L203.935 254.579L187.586 240.035L177.076 225.927L164.084 217.492L135.181 198.73L143.502 196.258L138.101 177.932C138.101 177.932 131.678 180.696 131.094 180.55C130.51 180.405 134.597 193.204 134.597 193.204L129.488 194.949L121.168 189.858L123.649 188.84L114.453 172.842L105.84 174.878L85.5498 161.643L76.3534 162.952L60.8801 154.08L24.3864 126.156L22.3428 129.501V137.355L44.239 150.881L114.453 195.531Z" fill="#D2F1C7"/>
<path d="M141.02 454.119L146.567 441.03L163.938 436.812C163.938 436.812 178.536 409.47 185.542 392.744C192.549 376.019 192.403 334.423 192.403 334.423L168.901 329.478L146.567 309.553L141.75 326.57L121.168 329.624L123.503 342.568L108.176 447.138L141.02 454.119Z" fill="#D2F1C7"/>
<path d="M131.386 61.4353L139.269 60.7081L131.24 34.3837L125.255 30.6023V30.0205H122.628V33.3656L131.386 61.4353Z" fill="#D2F1C7"/>
<path d="M114.453 332.824L91.243 329.479L87.0098 362.057L115.767 363.366L116.643 352.167L112.117 345.186L114.453 332.824Z" fill="#D2F1C7"/>
<path d="M270.354 347.805L253.713 340.678L235.612 326.861L232.547 329.916L228.021 330.497L238.678 352.022L249.188 356.967L299.549 366.566L268.602 353.477L270.354 347.805Z" fill="#D2F1C7"/>
<path d="M198.242 61.2898L215.029 54.7451L219.263 42.6737L224.81 34.3837V30.0205H207.001L203.935 32.0567L197.366 33.0747L196.199 36.5653L201.162 38.8923L201.6 42.3828L193.717 38.0196L194.739 30.7477L196.637 30.0205H138.977L143.794 54.7451L166.712 53.8725L184.375 54.7451L198.242 61.2898Z" fill="#D2F1C7"/>
<path d="M212.547 184.04L213.423 187.676L206.271 190.294L211.38 201.493L232.546 194.221L229.189 186.077L219.992 189.276L216.197 182.731L212.547 184.04Z" fill="#D2F1C7"/>
<path d="M226.124 65.5083C220.139 68.9989 212.84 70.5987 212.84 70.5987V86.1606L244.662 90.0875C244.662 90.0875 238.677 68.1262 236.926 64.6357C235.174 60.9997 232.109 61.8724 226.124 65.5083Z" fill="#D2F1C7"/>
<path d="M209.774 166.587L206.562 152.771L199.556 154.807L201.161 159.897L204.227 159.024L207.292 167.605L209.774 166.587Z" fill="#D2F1C7"/>
<path d="M270.354 134.446L310.935 140.118L311.227 137.064L305.242 135.318L304.512 126.447L286.557 123.102L287.725 129.355L285.973 131.828L267.143 129.937L270.354 134.446Z" fill="#D2F1C7"/>
<path d="M251.232 112.048L304.221 114.084L248.021 103.321L251.232 112.048Z" fill="#D2F1C7"/>
<path d="M271.084 30.0205C274.733 37.0016 277.361 42.8191 277.361 45.2916C277.361 52.4181 275.171 79.3243 274.441 89.6504L301.593 88.6323L349.472 104.049H358.523V30.0205H271.084Z" fill="#D2F1C7"/>
<path d="M81.0246 193.057L22.3428 156.406V150.734L81.0246 193.057Z" fill="#D2F1C7"/>
<path d="M233.276 321.043L211.38 286.719L197.221 269.267L200.578 267.376L213.278 277.848L219.993 291.228L224.08 293.41L228.313 292.973L245.246 307.226L249.042 318.716L233.276 321.043Z" fill="#D2F1C7"/>
<path d="M290.645 231.307L298.235 228.98L294.878 221.272L287.287 224.617L290.645 231.307Z" fill="#D2F1C7"/>
<path d="M291.813 272.903L285.39 274.648L288.601 283.374L295.608 280.757L291.813 272.903Z" fill="#D2F1C7"/>
<path d="M242.473 65.9438L241.597 69.1435L250.501 94.0135L253.859 95.7588L254.88 99.5402L279.988 104.485L280.572 102.304C268.894 100.267 260.135 98.3767 259.114 97.7949C255.902 95.9042 248.457 84.1237 248.457 84.1237L242.473 65.9438Z" fill="#D2F1C7"/>
<path d="M152.698 62.162L150.362 64.489L145.545 63.4709V65.5071L187.002 64.489C184.958 63.0346 183.206 61.8711 182.477 61.7257C180.579 61.2894 152.698 62.162 152.698 62.162Z" fill="#D2F1C7"/>
<path d="M225.539 63.6165L226.123 60.126L217.364 64.9255L198.825 70.743L200.723 72.052L225.539 63.6165Z" fill="#D2F1C7"/>
<path d="M28.0358 30.0215L29.6415 33.2211L22.3428 39.0387V40.0568L29.9335 33.9483L33.4369 41.5112C31.2472 43.5473 29.0576 45.438 27.014 47.3287L22.3428 41.0748V42.3838L26.576 47.9105C25.1163 49.2194 23.6565 50.5284 22.3428 51.8373V57.364C23.3646 56.3459 24.3864 55.4733 25.5542 54.3098L28.9116 58.2366L25.4082 61L22.3428 57.8003V58.9638L24.8243 61.5817L22.3428 63.4724V64.4905L25.4082 62.018L28.4737 65.0722L24.6784 71.9079L22.3428 70.4535V71.4715L31.5392 77.58L29.6415 84.2702V84.4156L30.0794 96.1961L22.3428 97.2142V98.0868L29.9335 96.9233L30.2254 104.486L25.7002 105.65L22.3428 104.341V105.213L25.5542 106.522C25.7002 106.522 25.7002 106.522 25.8462 106.522L30.5174 105.213L34.1667 108.995C30.6633 114.085 26.2841 120.484 22.3428 126.447V133.719C23.5106 131.829 24.8243 129.938 26.1381 128.047L60.7341 154.226L83.0683 167.025L129.342 195.095L177.076 226.364C177.806 227.382 184.521 236.981 186.71 239.599C188.316 241.635 196.929 249.198 201.308 252.979C202.622 256.47 203.643 259.233 204.227 260.833L182.477 274.94C175.324 263.887 166.712 254.143 156.786 245.562C152.406 241.78 146.567 237.272 139.707 232.327L139.561 232.181C103.213 206.002 40.8816 167.607 22.3428 156.408V161.207C26.2841 163.68 31.6852 166.879 37.9621 170.806L23.2186 179.242C23.0726 179.387 23.0726 179.533 23.0726 179.678L23.5106 185.932C23.5106 186.077 23.6565 186.223 23.8025 186.368L26.722 186.659L28.9116 191.168L23.8025 193.786C23.6565 193.931 23.5106 194.076 23.6565 194.222L26.576 203.094L22.7807 205.421C22.6347 205.566 22.4887 205.712 22.6347 206.002L27.3059 216.038L22.3428 217.928V218.801L27.5979 216.619L30.6633 223.164L22.3428 226.655V227.527L30.8093 223.891L34.0208 232.618L25.2623 235.527L22.3428 228.545V232.618L50.8079 297.92C46.2826 299.81 41.4655 301.847 36.9403 303.883L22.3428 267.669V269.85L36.2104 304.174C31.2472 306.21 26.576 308.246 22.3428 310.137V314.5C22.7807 314.354 23.0726 314.209 23.5106 314.064L27.1599 326.426L22.3428 328.026V328.898L27.4519 327.008L38.1081 362.204L27.7438 361.913L22.3428 350.86V352.75L26.722 361.913L22.3428 361.767V362.64L38.1081 363.076L31.5392 396.527C31.5392 396.527 31.5392 396.527 31.5392 396.673L32.561 421.252L32.707 425.033L22.3428 422.706V426.924L32.561 429.396L22.6347 497.171H22.4887V503.861L23.2186 499.062L32.853 501.97L30.5174 507.933L26.4301 508.37C26.2841 508.37 26.1381 508.515 26.1381 508.661L25.2623 515.496C25.2623 515.787 25.4082 515.933 25.5542 515.933C25.8462 515.933 25.9921 515.787 25.9921 515.642L26.576 509.242L30.5174 508.806C30.6633 508.806 30.8093 508.661 30.8093 508.515L33.1449 502.261L38.546 503.861C38.546 503.861 38.546 503.861 38.6919 503.861L40.4436 504.152L38.9839 509.679C38.9839 509.824 38.9839 509.97 39.1299 510.115L57.5227 521.605C57.6687 521.75 57.9606 521.605 58.1066 521.459L63.3617 514.042L76.2075 522.186C73.8719 525.822 71.5363 529.313 69.3467 532.658H74.1638C75.9155 530.04 77.6672 527.277 79.5649 524.368L92.5566 532.658H95.6221L80.7327 523.059C85.9878 514.624 91.2429 505.897 95.0382 498.771C97.6658 499.789 101.899 501.534 106.278 503.279L95.9141 527.131C95.7681 527.277 95.9141 527.568 96.06 527.713C96.206 527.859 96.498 527.713 96.6439 527.568L100.439 518.841L120.584 519.423L122.481 521.75C122.627 521.896 122.919 521.896 123.065 521.75C123.211 521.605 123.211 521.605 123.211 521.459C123.211 521.314 123.211 521.314 123.065 521.168L121.022 518.696C120.876 518.55 120.876 518.55 120.73 518.55L100.731 517.969L107.008 503.716C111.825 505.606 116.934 507.352 120.438 508.37C129.488 510.842 146.129 510.26 146.859 510.26C147.151 510.26 147.443 510.115 147.589 509.679L165.398 463.865C166.566 464.302 167.734 464.593 168.755 464.884L169.923 465.465L178.098 508.079L177.806 508.515C170.799 510.697 131.094 523.204 123.503 525.677C122.19 526.113 121.022 526.695 120 527.277L115.037 523.786C114.891 523.786 114.891 523.641 114.745 523.786C114.599 523.786 114.599 523.932 114.453 523.932L111.095 528.586C110.949 528.731 110.949 529.022 111.241 529.168C111.387 529.313 111.679 529.313 111.825 529.022L114.891 524.659L119.124 527.713C116.934 529.168 115.183 530.913 113.869 532.513H114.891C116.934 530.186 119.854 527.568 123.503 526.404C130.802 524.077 167.734 512.442 176.784 509.533L164.23 528.877L155.764 524.223C155.618 524.077 155.326 524.223 155.18 524.368C155.034 524.513 155.18 524.804 155.326 524.95L163.792 529.604L161.895 532.513H163.792L178.536 509.824L188.608 532.513H190.36L187.732 526.695L189.922 524.223C189.922 524.077 190.068 524.077 190.068 523.932L189.922 515.787H199.264L200.286 520.296C200.286 520.441 200.432 520.587 200.578 520.587L211.088 522.477L210.066 532.367H210.942L211.234 529.749L246.706 528.44H246.852L250.209 526.695C255.611 527.859 262.763 528.295 271.522 528.731C271.814 528.731 272.106 528.731 272.398 528.731C272.69 529.895 272.981 531.204 273.273 532.367H277.507C277.215 531.204 277.069 530.186 276.777 529.022C278.383 529.168 280.134 529.167 281.886 529.313L282.616 532.367H283.492L282.762 529.458C285.681 529.604 288.601 529.895 291.666 530.186L291.958 532.367H292.834L292.542 530.186C293.126 530.186 293.564 530.331 294.148 530.331C298.673 530.767 305.242 531.495 312.687 532.222H352.246C349.618 531.931 346.845 531.64 344.071 531.349L347.429 508.079L349.472 494.989H358.669V494.117H349.472L352.83 472.883L358.523 474.192V473.319L352.976 472.155L356.187 451.939C357.063 451.939 357.793 452.085 358.523 452.085V448.013C356.917 447.867 355.311 447.867 353.56 447.867C349.18 448.013 345.093 449.322 341.444 451.212L330.496 442.195L335.459 433.76L338.232 427.215L351.662 433.323L358.377 433.76V432.887L352.246 432.451L357.793 411.798L358.377 411.944V411.071L351.224 409.617L356.333 394.2L358.523 394.637V393.764L356.187 393.328L325.97 389.692L331.079 375.002C341.152 376.893 348.742 378.202 350.786 378.638C352.684 379.947 355.457 381.693 358.669 383.874V379.075C357.647 378.347 356.625 377.766 355.749 377.184L358.669 375.875V371.366L351.37 374.711C343.341 373.257 331.663 371.076 318.964 368.748C320.131 364.24 322.321 356.241 325.24 347.078L332.539 349.987H332.685C332.685 349.987 339.692 350.278 344.071 349.987C344.801 349.987 346.699 349.26 349.472 348.242C351.954 347.224 355.165 345.915 358.815 344.315V343.442C355.311 344.897 352.1 346.351 349.472 347.369L345.677 338.352C345.531 338.206 345.385 338.061 345.093 338.206C344.947 338.352 344.801 338.497 344.947 338.788L348.742 347.805C346.261 348.823 344.509 349.405 343.925 349.405C339.838 349.696 333.415 349.405 332.685 349.405L325.386 346.496C326.262 343.588 327.284 340.533 328.306 337.334L352.1 327.298L358.669 342.133V340.097L352.83 327.008L358.669 324.535V323.662L328.598 336.316C332.247 325.553 336.626 314.645 341.152 306.792L346.553 311.736C346.699 311.882 346.845 311.882 346.991 311.882L358.523 308.246V306.646L355.311 301.701L358.523 299.81V298.938L354.581 301.265C354.435 301.265 354.435 301.41 354.435 301.556C354.435 301.701 354.435 301.847 354.435 301.847L358.085 307.519L346.845 311.009L341.444 306.064C345.093 299.81 348.013 293.993 350.348 288.321L357.793 291.084L358.377 291.957V290.502L358.231 290.357L350.64 287.594C354.289 278.722 356.625 270.432 357.939 261.706H358.377V261.269H358.085C358.231 260.251 358.377 259.233 358.377 258.07V233.2C358.231 230.872 357.939 228.4 357.793 225.782C357.939 225.782 358.231 225.782 358.523 225.782V224.182C358.231 224.182 357.939 224.182 357.647 224.182C357.209 219.674 356.625 214.874 356.041 210.366L358.377 209.929V209.057L355.895 209.493C355.019 202.948 354.143 196.84 353.414 191.749L358.377 191.168V190.295L353.414 190.877C352.684 185.786 352.1 182.005 351.808 180.405L357.939 178.805L358.523 181.86V171.533L357.793 177.642V177.787V177.933L351.808 179.387L352.684 168.334L358.523 167.752V166.734L352.83 167.316L354.581 147.1L358.523 147.681V146.809L354.581 146.227L355.603 134.447L358.523 133.428V129.211L356.479 129.938L357.501 125.72C357.793 125.72 358.085 125.72 358.523 125.575V121.503C357.647 121.648 356.771 121.648 356.041 121.793C352.1 121.066 309.475 112.631 269.04 104.922C270.062 98.3777 271.376 91.2512 272.398 85.2882C272.398 85.1428 272.398 85.1428 272.398 84.9974L267.58 45.2926C267.58 45.1471 267.58 45.1471 267.434 45.0017L259.552 30.0215H257.654L265.829 45.5834L270.792 84.9974C270.5 87.0335 269.04 95.7598 267.58 104.486C260.866 103.177 254.151 101.868 247.728 100.705C245.83 93.1419 239.407 66.8175 236.78 63.4724C234.59 60.7091 231.379 62.3089 226.853 64.6359C224.81 65.654 222.328 66.9629 219.701 67.8356C211.964 70.5989 198.388 74.5258 196.783 75.1075L182.331 65.654C182.331 65.654 182.185 65.654 182.039 65.654L138.539 67.6901C138.393 67.6901 138.393 67.6901 138.247 67.8356L136.203 69.7263C130.51 55.037 126.423 44.2745 125.985 42.9655C125.839 42.0929 124.671 37.148 123.065 30.0215H118.832C120.146 35.5482 121.022 39.7659 121.606 42.0929L114.745 43.9836C114.745 43.9836 114.599 43.8382 114.453 43.8382L107.738 43.111H107.592L96.352 46.3106L93.8704 30.0215H92.9946L95.7681 48.6377L87.3016 45.438L85.5499 30.0215H84.674L86.4257 45.5834L43.0712 59.4001C43.0712 59.4001 42.9252 59.4001 42.9252 59.5456L35.1886 67.5447L40.2977 49.9466L58.2526 35.839C58.3985 35.839 58.3985 35.839 58.5445 35.6936L58.6905 35.5482L65.5513 30.0215H64.2375L58.2526 34.821L54.0193 30.0215H52.9975L57.5227 35.4027L50.3699 41.2203L46.1367 35.839C48.3263 33.9483 50.6619 31.9122 52.8515 30.1669H46.5746C45.2608 31.185 44.093 32.3485 42.7792 33.512L40.5896 30.0215H39.5678L42.0494 33.8029C39.2758 36.1299 36.6483 38.6024 34.0208 40.9294L30.6633 33.6575L37.0862 30.0215H35.4805L30.2254 32.9303L28.9116 30.0215H28.0358ZM26.1381 53.728C28.0358 51.9827 30.0794 50.092 32.2691 48.0559L34.3127 50.3829L27.5979 55.4733L26.1381 53.728ZM28.1818 56.055L34.8966 50.9647L36.2104 52.4191L29.6415 57.6549L28.1818 56.055ZM25.2623 72.3442L29.0576 65.654L34.0208 68.5628L31.6852 76.7073L25.2623 72.3442ZM32.415 77.1437L34.7506 68.9991L43.2172 73.7986L49.2021 81.7977L42.4873 85.4337L39.5678 81.7977C39.5678 81.7977 39.5678 81.7977 39.4218 81.6523L32.415 77.1437ZM88.1774 138.083L68.9087 148.99C69.0547 148.845 69.0547 148.7 68.9087 148.554L58.5445 136.774L80.4407 117.139L101.315 110.013L107.592 129.356L107.884 130.083L109.052 133.719L95.3302 138.519L88.4694 138.083C88.3234 138.083 88.3234 138.083 88.1774 138.083ZM74.4558 94.5963L82.6304 91.2512L83.5062 95.4689L70.0765 108.122L58.6905 92.9965C61.464 91.1058 64.5295 89.0696 67.303 87.0335L74.0179 94.4509C74.0179 94.5963 74.3098 94.7418 74.4558 94.5963ZM89.4912 105.65C89.4912 105.504 89.4912 105.359 89.3452 105.359L81.6085 98.3777L84.2361 95.9053C84.3821 95.7598 84.3821 95.6144 84.3821 95.4689L83.3602 91.1058L95.6221 86.7426L101.023 109.431L89.4912 113.212V105.65ZM88.6153 113.503L80.0028 116.412C80.0028 116.412 79.8568 116.412 79.8568 116.558L70.6604 124.848L62.4858 116.558L81.0246 99.1049L88.6153 105.941V113.503ZM49.786 94.3054L43.0712 86.1609L49.786 82.5249L55.625 90.2332C53.5814 91.6875 51.5377 92.9965 49.786 94.3054ZM49.2021 94.7418C47.3045 96.0507 45.6987 97.2142 44.385 98.0868L41.3195 95.0326L40.7356 94.4509L36.2104 89.9423L42.4873 86.5972L49.2021 94.7418ZM57.9606 93.4328L69.4926 108.704L61.9019 115.83L47.1585 100.996C49.932 99.1049 53.8733 96.3416 57.9606 93.4328ZM61.318 116.412L50.224 126.884L41.3195 115.976L50.6619 105.941C50.6619 105.941 50.6619 105.795 50.8079 105.795L61.318 116.412ZM61.9019 116.994L70.0765 125.284L57.9606 136.192L50.8079 127.465L61.9019 116.994ZM101.899 109.431L96.498 86.3063L115.913 79.4707L127.445 111.467L131.24 122.375L108.322 129.211L101.899 109.431ZM96.206 85.5791L93.1405 72.7805C93.2865 72.7805 93.2865 72.6351 93.4325 72.6351L107.738 56.9277L115.475 78.7435L96.206 85.5791ZM95.4761 85.87L82.7763 90.3786L74.3098 93.7237L67.8869 86.5972C75.1856 81.5068 81.6085 77.2891 82.6304 76.7073C83.7982 76.271 89.4912 74.2349 92.4107 73.2168L95.4761 85.87ZM56.2089 89.7968L50.5159 82.234L58.8365 77.8709L64.5295 84.2702C61.756 86.0154 58.9824 87.9061 56.2089 89.7968ZM30.3714 84.1247L32.2691 77.8709L39.1299 82.3795L41.9034 85.7245L35.4805 89.2151L30.3714 84.1247ZM30.3714 85.2882L39.5678 94.5963L30.6633 95.9053L30.3714 85.2882ZM31.1013 104.632L30.8093 96.7779L40.2977 95.3235L43.6551 98.6686C41.7574 99.9776 40.5896 100.705 40.5896 100.85C39.8597 101.432 37.5242 104.486 34.7506 108.558L31.1013 104.632ZM43.0712 103.904C43.3631 103.614 44.6769 102.741 46.5746 101.432L50.3699 105.213C50.224 105.213 50.224 105.213 50.224 105.359L41.0275 115.394L37.6701 111.467C40.2977 107.395 42.3413 104.486 43.0712 103.904ZM26.576 127.465C30.2254 121.939 34.0208 116.412 36.9403 112.049L57.5227 136.919L68.1789 148.99C68.3248 149.136 68.3248 149.136 68.4708 149.136L60.8801 153.499L26.576 127.465ZM83.3602 166.443L61.756 153.935L88.4694 138.81L95.3302 139.246H95.4761L109.344 134.592L128.758 194.076L83.3602 166.443ZM108.614 129.938L131.824 122.957C131.97 122.957 131.97 122.811 132.116 122.811V122.666V122.521L128.32 111.613L145.837 106.231C154.012 127.32 162.187 148.845 166.858 160.771L147.005 167.025C146.859 167.025 146.859 167.17 146.713 167.17C146.713 167.316 146.713 167.316 146.713 167.461L153.136 186.514L129.78 194.513L108.614 129.938ZM253.859 120.194L257.508 130.229L230.357 122.811L231.087 116.703L253.859 120.194ZM231.087 115.976L231.525 112.194L251.669 114.521L253.421 119.466L231.087 115.976ZM291.812 145.064C291.812 145.209 291.812 145.354 291.812 145.354C291.812 145.5 291.958 145.5 292.104 145.5L303.344 147.245C303.49 147.245 303.782 147.1 303.782 146.954L305.388 139.828L309.329 140.41L307.14 154.808C307.14 154.953 307.14 155.099 307.286 155.099L309.329 157.28L308.891 163.098L289.185 161.062V160.916C287.579 158.589 285.827 155.972 284.076 153.354L288.017 149.427C288.163 149.281 288.163 149.281 288.163 149.136C288.163 148.99 288.163 148.99 288.017 148.845L281.302 141.282L282.324 136.337L293.126 137.937L291.812 145.064ZM294.002 138.083L304.804 139.682L303.198 146.373L292.688 144.773L294.002 138.083ZM343.049 203.675L345.093 214.874L329.474 217.783L327.43 206.148L343.049 203.675ZM336.481 203.966L334.875 188.695C337.21 188.404 339.108 188.113 339.984 187.968L342.757 202.948L336.481 203.966ZM328.744 218.219C328.744 218.365 328.89 218.365 328.89 218.51C329.036 218.51 329.036 218.656 329.182 218.51L345.239 215.601L346.991 224.764L331.371 227.673C331.371 227.673 331.371 227.527 331.225 227.527L312.103 212.693L319.547 207.311L326.554 206.293L328.744 218.219ZM159.851 115.54L161.895 114.521L171.091 115.394L171.529 129.211L167.004 128.92L159.851 115.54ZM166.128 128.774L158.683 128.047C157.369 124.848 156.202 121.502 154.888 118.012L159.267 115.685L166.128 128.774ZM218.825 142.155L220.285 152.917L211.672 154.081C211.526 154.081 211.38 154.226 211.38 154.226C211.38 154.372 211.234 154.372 211.38 154.517L216.197 172.261L201.6 177.787L194.009 156.699L192.549 152.481L201.746 149.281C201.892 149.281 202.038 148.99 202.038 148.845L199.118 136.046L218.825 142.155ZM210.942 138.81L215.467 126.884L223.496 128.193L220.723 130.665C220.723 130.665 220.577 130.811 220.577 130.956L218.679 141.428L210.942 138.81ZM282.324 153.644L278.091 155.681L272.69 147.245C272.544 147.1 272.398 146.954 272.252 147.1L265.391 149.136L263.785 144.918L273.711 140.7C276.339 144.918 279.55 149.572 282.324 153.644ZM277.799 144.046L280.718 142.009L286.995 149.281L283.492 152.772C281.594 149.863 279.696 146.954 277.799 144.046ZM272.106 147.972L277.653 156.408C277.799 156.553 277.945 156.699 278.237 156.553L282.908 154.372C284.513 156.699 285.973 158.88 287.141 160.626L267.58 155.39L265.537 149.863L272.106 147.972ZM283.054 225.928C282.908 226.073 282.762 226.218 282.908 226.509C283.054 226.655 283.2 226.8 283.492 226.655L287.141 224.91L290.207 231.891C290.352 232.036 290.498 232.181 290.644 232.181L298.673 229.418L308.453 250.507L286.265 258.07C272.398 226.218 256.34 189.713 255.173 187.095V186.95L275.755 179.969L276.047 180.842L282.47 194.658L294.586 220.546L283.054 225.928ZM294.878 221.274L298.381 228.691L290.79 231.309L287.871 224.619L294.878 221.274ZM254.881 294.284L244.954 273.05L265.975 265.923L275.317 287.594L254.881 294.284ZM275.609 288.175L282.616 304.465L272.398 309.555C272.252 309.555 272.252 309.7 272.252 309.846C272.252 309.991 272.252 310.137 272.252 310.137L274.587 314.354L266.413 319.299L255.173 295.156L275.609 288.175ZM266.705 265.632L285.681 259.088C287.579 263.596 289.623 267.959 291.374 272.177L284.951 274.213C284.805 274.213 284.805 274.359 284.659 274.359C284.659 274.504 284.659 274.504 284.659 274.65L288.017 283.085L275.901 287.157L266.705 265.632ZM266.413 264.76L252.545 232.618L256.048 231.163C256.194 231.163 256.34 231.018 256.34 230.727V230.582C256.194 230.436 256.048 230.291 255.756 230.436L252.253 231.891L235.758 193.495L254.297 187.095V187.241C254.589 187.968 271.084 225.637 285.389 258.215L266.413 264.76ZM188.17 158.589L186.564 154.663L191.82 152.772L193.279 156.699L188.17 158.589ZM193.571 157.28L198.534 171.097L193.717 172.697L188.462 159.171L193.571 157.28ZM186.272 153.79L180.287 138.373L186.126 136.483L191.674 152.045L186.272 153.79ZM179.996 137.646L177.222 130.665L184.229 131.247L185.835 135.61L179.996 137.646ZM179.12 137.937L171.529 140.555L169.339 134.737L167.442 129.938L176.346 130.811L179.12 137.937ZM179.412 138.664L185.397 154.081L177.806 156.844L171.821 141.137L179.412 138.664ZM185.835 154.808L187.586 159.171L192.987 172.988L185.251 175.606L178.244 157.571L185.835 154.808ZM193.133 173.86L197.804 185.932L190.068 188.841L185.397 176.624L193.133 173.86ZM194.009 173.57L198.826 171.97L203.06 183.896L198.68 185.496L194.009 173.57ZM202.038 178.515L210.212 175.46L211.38 180.696L203.789 183.459L202.038 178.515ZM211.526 181.569L212.986 187.386L206.417 189.568L204.519 185.496L204.081 184.332L211.526 181.569ZM213.57 188.113C213.716 188.113 213.862 187.968 213.862 187.677C213.862 187.677 213.862 187.677 213.862 187.532L212.256 180.987L211.088 175.315C211.088 175.315 211.088 175.169 210.942 175.169L224.664 169.934L234.59 192.913L211.526 200.767L206.709 190.15L213.57 188.113ZM221.89 163.534L224.372 169.352L217.073 172.115L215.175 165.425L221.89 163.534ZM215.029 164.552L212.402 154.808L220.431 153.79L221.744 162.807L215.029 164.552ZM283.346 194.658L297.359 187.823L310.351 212.984L295.17 220.255L283.346 194.658ZM283.054 193.931L276.777 180.551L276.485 179.678L290.644 174.879L297.067 187.241L283.054 193.931ZM276.193 178.805L267.872 156.262L287.725 161.498C287.725 161.498 287.725 161.644 287.871 161.644L290.353 173.86L276.193 178.805ZM266.997 156.117L269.332 162.371L258.676 165.28L255.465 152.917L266.997 156.117ZM257.8 165.861C257.8 166.007 257.946 166.007 257.946 166.152C257.946 166.298 258.092 166.152 258.238 166.152L269.332 163.243C269.332 163.243 269.332 163.243 269.478 163.243L275.317 179.242L254.735 186.223L246.706 163.534L241.743 149.427L254.297 152.772L257.8 165.861ZM245.83 163.389L239.261 165.425C239.115 165.425 238.969 165.716 238.969 165.861C238.969 166.007 239.261 166.152 239.407 166.152L245.976 164.116L253.859 186.368L235.174 192.768L222.328 162.807L221.014 153.063L219.555 142.3L240.721 148.99L245.83 163.389ZM201.162 148.554L192.403 151.754L185.251 131.538L198.388 135.61L201.162 148.554ZM185.105 130.665L187.878 124.848L199.264 126.884L198.242 134.883L185.105 130.665ZM172.405 129.356L171.967 115.54L178.828 116.267L183.937 130.52L172.405 129.356ZM166.566 129.647L168.464 134.447L161.895 136.628C160.873 134.156 159.997 131.538 158.975 129.065L166.566 129.647ZM168.61 135.174L170.653 140.7L164.23 143.173C163.5 141.282 162.771 139.391 162.041 137.355L168.61 135.174ZM171.091 141.428L177.076 157.135L170.653 159.462C169.047 155.39 167.004 150.009 164.668 144.046L171.091 141.428ZM177.368 157.862L184.375 175.897L177.952 178.078C176.2 173.279 174.74 169.497 173.865 167.461C173.281 166.007 172.259 163.534 170.945 160.044L177.368 157.862ZM170.069 169.061C170.945 171.097 172.259 174.733 174.011 179.387L153.866 186.223L147.589 167.607L167.15 161.498C168.464 164.989 169.485 167.607 170.069 169.061ZM178.244 178.805L184.667 176.624L189.338 188.841L182.769 191.313C181.163 186.805 179.558 182.587 178.244 178.805ZM189.776 189.713L196.199 206.293L189.338 208.62C187.294 202.948 185.251 197.276 183.207 192.186L189.776 189.713ZM190.506 189.422L198.242 186.514L204.811 203.239L197.075 205.857L190.506 189.422ZM198.972 186.223L203.352 184.623L203.789 185.786L210.942 201.203L205.541 203.094L198.972 186.223ZM234.882 193.786L265.537 265.051L244.516 272.177L231.233 243.671L211.964 201.639L234.882 193.786ZM244.224 273.05L249.771 285.121L228.751 292.102L216.051 264.905L244.224 273.05ZM250.063 285.848L269.77 328.316C263.347 328.607 253.567 328.753 252.837 328.462C252.107 327.735 248.166 314.936 245.83 307.082C245.83 306.937 245.83 306.937 245.684 306.937L229.481 292.829L250.063 285.848ZM270.646 328.462L266.705 319.881L275.317 314.791C275.463 314.645 275.609 314.5 275.463 314.209L273.127 309.991L282.908 305.192L286.119 312.609C286.119 312.609 286.119 312.609 286.119 312.755L313.708 337.334L312.979 341.842L309.037 340.242H308.891H295.024L270.646 328.462ZM301.447 325.117L312.395 313.045C314.292 314.936 316.336 317.118 318.234 319.154L308.015 331.08L301.447 325.117ZM300.717 324.681L294.586 319.299L309.767 310.428C310.351 311.155 311.081 311.736 311.665 312.464L300.717 324.681ZM294.002 318.718L287.287 312.609L306.702 306.646C307.286 307.373 308.161 308.537 309.329 309.7L294.002 318.718ZM286.703 312.027L283.638 304.901L288.747 302.428C288.893 302.428 289.039 302.283 289.039 302.138V301.992C288.893 301.847 288.747 301.701 288.455 301.847L283.346 304.319L276.339 288.175L295.608 281.776C301.447 295.302 305.68 304.901 305.972 305.628C305.972 305.773 306.118 305.919 306.264 306.064L286.703 312.027ZM288.893 282.94L285.681 274.795L291.812 272.904C292.98 275.668 294.148 278.286 295.316 280.903L288.893 282.94ZM286.557 258.797L308.891 251.234L319.11 273.05L296.191 280.613C293.126 274.068 289.915 266.505 286.557 258.797ZM309.621 250.943L334.145 242.508L340.714 265.778L319.693 272.759L309.621 250.943ZM309.183 250.216L295.462 220.983L310.643 213.711L330.058 228.691L333.707 241.78L309.183 250.216ZM331.809 228.4L335.897 227.673L339.546 239.89L335.459 241.344L331.809 228.4ZM336.626 227.527L347.137 225.637L349.18 236.545L340.13 239.599L336.626 227.527ZM311.811 212.111L301.447 192.04L317.65 190.441L319.255 206.73L311.811 212.111ZM301.009 191.313L291.958 173.86L289.477 161.934L319.985 165.134L317.504 189.713L301.009 191.313ZM333.999 180.114C333.853 179.969 333.853 179.969 333.561 179.969C333.415 179.969 333.415 180.114 333.269 180.114L319.255 179.969L320.715 165.28L339.838 167.316L338.816 180.26L333.999 180.114ZM320.861 164.407L322.175 154.953L340.714 156.553L339.984 166.443L320.861 164.407ZM322.321 154.081L323.927 142.446L324.949 142.591L325.824 142.737L341.736 145.064L340.86 155.681L322.321 154.081ZM319.985 164.262L309.767 163.243L310.205 157.135C310.205 156.99 310.205 156.844 310.059 156.844L308.015 154.663L310.059 140.41L322.905 142.3L319.985 164.262ZM280.426 141.137L277.215 143.318C275.171 140.264 273.273 137.355 271.522 134.737L281.448 136.192L280.426 141.137ZM273.127 139.973L263.347 144.046L258.676 131.392L269.332 134.301C270.646 136.192 271.814 138.083 273.127 139.973ZM262.763 144.918L264.515 149.718L266.559 155.099L241.159 148.263L219.555 141.428L221.452 130.956L229.919 123.393L257.8 130.956L262.763 144.918ZM229.189 123.248L224.372 127.465L215.321 126.011C215.175 126.011 214.884 126.157 214.884 126.302L210.212 138.519L199.118 135.028L201.6 114.376L218.825 117.285L229.189 123.248ZM199.41 126.011L187.878 123.975L183.937 111.613L200.724 114.376L199.41 126.011ZM187.148 124.266L184.521 129.793L177.66 110.449L183.061 111.322L187.148 124.266ZM178.536 115.394L171.967 114.667L171.821 109.431L176.784 110.304L178.536 115.394ZM171.091 114.667L161.895 113.794C161.749 113.794 161.749 113.794 161.603 113.794L159.559 114.812L155.18 106.813L170.799 109.431L171.091 114.667ZM149.779 105.068C147.443 98.9595 145.108 92.8511 142.772 86.8881C147.443 87.6153 158.391 89.3605 169.777 91.1058L176.346 109.431L149.779 105.068ZM154.158 106.668L158.683 115.249L154.304 117.43C152.844 113.649 151.384 109.722 149.925 105.941L154.158 106.668ZM130.364 195.095L153.428 187.241L163.354 216.474L130.364 195.095ZM154.158 186.95L174.303 180.114C177.222 187.968 181.309 198.73 185.251 209.784L164.23 216.91L154.158 186.95ZM187.294 239.163C185.105 236.545 177.66 225.928 177.66 225.928C177.66 225.928 177.66 225.782 177.514 225.782L164.96 217.638L185.689 210.656C191.236 225.782 196.929 241.344 200.578 251.525C196.053 247.453 188.754 240.908 187.294 239.163ZM189.484 209.348L211.088 201.93L230.357 243.671L205.687 253.852C202.33 244.253 195.761 226.509 189.484 209.348ZM208.607 261.706C208.607 261.415 208.607 261.269 208.461 260.978C208.461 260.833 207.585 258.506 206.125 254.579L230.941 244.398L243.787 272.177L208.607 261.851C208.461 261.851 208.607 261.706 208.607 261.706ZM207.585 263.451C207.877 263.305 208.169 263.014 208.315 262.724L215.029 264.614L228.167 292.829L244.808 307.373C246.268 312.464 251.085 328.171 252.107 328.898C252.983 329.625 264.953 329.189 270.208 329.044L294.732 340.97H294.878H308.745L312.541 342.569L300.571 365.84C275.025 360.895 250.355 355.804 246.56 354.059C245.392 353.477 244.516 353.187 243.641 352.75C238.24 350.569 236.634 349.987 227.437 324.681C227.291 324.39 227.145 324.099 226.853 323.808C226.562 323.517 198.534 299.665 190.798 290.066C188.754 285.994 186.564 282.067 184.229 278.286L207.585 263.451ZM257.8 375.148C257.654 375.293 257.8 375.584 257.946 375.73L261.158 377.62L257.654 386.783L239.699 376.602L240.867 374.275L248.604 376.457C248.75 376.457 249.042 376.457 249.042 376.166V376.02C249.042 375.875 248.896 375.73 248.75 375.584L241.159 373.403L248.166 358.859C252.107 360.022 258.676 361.477 266.705 363.222L261.449 376.893L258.238 375.148C258.238 375.002 257.946 375.002 257.8 375.148ZM317.212 417.034L321.591 415.58L329.182 417.47L325.386 430.56L305.68 424.306L297.359 421.106C298.527 418.489 299.549 415.871 300.717 413.253L316.92 417.034C317.066 417.034 317.212 417.034 317.212 417.034ZM305.096 491.063C305.242 491.063 305.388 490.917 305.534 490.917L303.928 502.552L278.237 499.207L280.864 483.936C291.082 487.572 302.614 491.499 305.096 491.063ZM263.931 511.569L235.904 512.733C232.984 509.97 229.627 506.77 226.27 503.425H262.471L263.931 511.569ZM263.201 503.425H267.726C267.872 505.606 268.31 508.224 268.748 511.279L264.661 511.424L263.201 503.425ZM268.894 512.151C269.624 516.078 270.5 520.587 271.376 525.095C259.552 524.368 250.063 523.786 245.684 521.168C244.078 520.296 240.867 517.387 236.634 513.46L268.894 512.151ZM271.668 501.098C271.668 500.661 271.668 499.934 271.814 499.207L280.718 500.371L279.258 518.696V518.841L280.718 525.532C278.966 525.386 277.215 525.241 275.609 525.241C273.565 515.642 271.668 505.606 271.668 501.098ZM215.613 373.112L213.424 372.966L215.175 354.641L223.35 354.786L222.474 361.913L220.868 373.403L216.343 373.112C216.343 372.966 216.197 372.966 216.051 372.966C215.759 372.966 215.613 373.112 215.613 373.112ZM209.482 317.263L216.489 342.86L207.585 343.878C207.147 340.824 206.563 337.77 205.979 334.57C204.811 329.044 203.497 323.808 202.038 318.718L209.482 317.263ZM201.746 317.99C199.994 312.318 198.096 306.792 196.053 301.556C200.724 306.064 206.125 311.009 210.942 315.372L209.628 316.391L201.746 317.99ZM216.635 343.588V348.969L214.884 349.987C214.738 349.987 214.738 350.132 214.738 350.278L214.446 353.914L208.753 353.768C208.607 350.714 208.169 347.66 207.731 344.46L216.635 343.588ZM215.467 350.569L217.219 349.405C217.365 349.26 217.365 349.26 217.365 349.114V343.151L210.212 316.972L211.526 315.954C217.365 321.19 222.328 325.408 223.788 326.717C230.211 344.169 233.276 350.423 236.634 353.623L235.466 354.35L215.029 354.059L215.467 350.569ZM237.364 354.059C238.094 354.641 238.823 355.077 239.553 355.368L237.656 366.712L234.882 366.421L227.437 365.113L223.058 361.767L223.934 354.786L235.612 354.932C235.758 354.932 235.758 354.932 235.904 354.932L237.364 354.059ZM234.59 371.657L235.32 367.294L243.057 368.167L240.575 373.257L234.59 371.657ZM240.137 373.984L238.969 376.311L233.422 376.893L234.298 372.239L240.137 373.984ZM238.531 366.858L240.283 355.804C240.867 356.095 241.451 356.386 242.181 356.532C243.057 356.823 243.933 357.259 244.954 357.695C245.538 357.986 246.414 358.277 247.582 358.568L243.349 367.294L238.531 366.858ZM214.3 354.786L212.548 373.112L208.607 372.966C209.045 367.003 209.191 360.895 208.753 354.786H214.3ZM223.058 362.785L227.145 365.84C227.145 365.84 227.291 365.84 227.291 365.985L234.444 367.294L233.568 371.948L232.546 377.475V377.62L231.963 393.182L219.409 394.637L219.847 383.583C219.847 383.438 219.847 383.438 219.701 383.292C219.555 383.147 219.555 383.147 219.409 383.147H215.613L216.197 374.13L221.014 374.421C221.16 374.421 221.452 374.275 221.452 374.13L223.058 362.785ZM269.04 491.499L251.377 489.608L252.837 481.609C252.837 481.464 252.691 481.318 252.545 481.173L236.05 476.664L239.845 466.92L246.706 469.974L271.668 480.591C270.646 484.372 269.77 488.154 269.04 491.499ZM275.463 482.045C276.923 482.627 278.529 483.209 280.28 483.791L277.507 499.207L271.96 498.48C272.398 494.553 273.857 488.445 275.463 482.045ZM204.665 482.045L211.672 473.61L219.555 494.262L221.16 498.625C215.321 492.808 209.482 486.99 204.665 482.045ZM215.175 498.334L196.637 495.135L196.491 492.081L209.191 492.371C211.088 494.262 213.132 496.298 215.175 498.334ZM208.461 491.644L196.491 491.353L196.199 479.137C198.242 481.318 202.914 485.972 208.461 491.644ZM258.384 470.41L249.042 466.483L253.421 455.43L263.201 459.502L258.384 470.41ZM263.785 459.939L268.894 462.12L266.997 466.92L261.887 464.302L263.785 459.939ZM261.741 464.884L266.851 467.647L264.661 473.174L259.114 470.847L261.741 464.884ZM269.624 462.411L275.755 465.029C274.733 468.52 273.565 472.592 272.544 476.519L265.245 473.464L269.624 462.411ZM269.916 461.538L273.857 451.212L279.404 453.394C279.258 453.539 279.258 453.83 279.258 453.976C278.529 456.012 277.361 459.648 276.047 464.156L269.916 461.538ZM269.186 461.248L253.713 454.703L260.136 445.831L273.273 450.921L269.186 461.248ZM260.574 445.104L261.741 442.922L274.441 448.013L273.857 449.322L273.565 450.194L260.574 445.104ZM262.033 442.195L270.646 425.47L276.777 427.651L269.332 444.958L262.033 442.195ZM262.763 439.141L246.268 432.014L252.545 419.07L269.77 425.324L262.763 439.141ZM245.538 431.724L229.043 424.597L234.298 412.235L251.815 418.634L245.538 431.724ZM262.471 439.723L261.158 442.195L259.698 445.104L253.129 454.267C253.129 454.267 253.129 454.266 253.129 454.412L222.328 441.322L229.043 425.324L262.471 439.723ZM252.691 455.139L248.312 466.192L217.365 452.521L221.744 442.05L252.691 455.139ZM218.387 457.321L211.672 472.01L203.206 465.174L200.432 462.702L204.227 451.067L218.387 457.321ZM219.117 457.757L239.115 466.629L235.174 476.81C235.174 476.955 235.174 477.1 235.174 477.1C235.174 477.246 235.32 477.246 235.466 477.246L251.961 481.754L250.501 489.463L243.933 488.736L244.662 482.772C244.662 482.627 244.516 482.336 244.37 482.336C244.078 482.336 243.933 482.482 243.933 482.627L243.641 485.1L238.239 481.9C238.094 481.9 237.948 481.754 237.802 481.9L235.466 482.918L232.255 480.591C232.109 480.445 231.963 480.445 231.817 480.591L226.124 483.5L223.642 478.555L227.583 476.955C227.729 476.955 227.875 476.81 227.875 476.664C227.875 476.519 227.875 476.373 227.729 476.228L219.701 469.828C219.555 469.683 219.409 469.683 219.263 469.828L214.738 472.737C214.592 472.883 214.446 473.028 214.592 473.319L218.971 480.445L215.613 481.464L212.256 472.737L219.117 457.757ZM219.701 480.155L215.467 473.319L219.409 470.701L226.707 476.519L223.058 478.118L219.701 480.155ZM220.139 493.68L215.759 482.336L219.701 481.173L222.912 479.137L225.54 484.518C225.54 484.663 225.686 484.663 225.832 484.663C225.978 484.663 225.978 484.663 226.124 484.663L231.963 481.609L235.174 483.936C235.32 484.081 235.466 484.081 235.612 483.936L237.948 482.918L243.495 486.263L242.327 494.698L220.139 493.68ZM276.485 477.973C277.507 474.192 278.529 470.556 279.404 467.211L284.659 469.538L281.01 479.718C279.55 479.137 277.945 478.555 276.485 477.973ZM279.696 466.483C281.01 461.684 282.324 457.612 283.2 455.43C283.492 454.557 284.076 453.103 284.951 450.921L290.498 453.83L284.951 468.956L279.696 466.483ZM279.696 452.667L274.149 450.485L274.441 449.612L283.054 430.124L288.309 432.014C284.368 441.468 281.156 449.176 279.696 452.667ZM274.733 447.285L270.062 445.395L277.507 428.088L282.324 429.833L274.733 447.285ZM277.945 427.36L284.951 411.217L289.915 412.816L282.762 429.106L277.945 427.36ZM277.215 427.069L271.084 424.888L279.112 409.326L284.076 410.926L277.215 427.069ZM270.354 424.597L253.129 418.343L259.552 405.254L276.485 412.962L270.354 424.597ZM252.253 417.907L234.298 411.362C234.152 411.217 233.86 411.362 233.714 411.653L221.306 441.032L211.234 436.668L214.592 431.142L217.219 430.415C217.365 430.415 217.365 430.269 217.511 430.124L232.838 393.619L239.407 392.891L247.874 395.364L245.1 402.199C244.954 402.345 245.1 402.636 245.392 402.781C245.538 402.927 245.83 402.781 245.976 402.49L248.75 395.655L254.005 397.109L252.545 401.618C252.545 401.763 252.545 402.054 252.691 402.054L258.822 404.817L252.253 417.907ZM239.407 392.164H239.261L232.838 392.891L233.13 385.038L241.305 383.874L248.02 390.855L248.166 391.001L255.319 393.182L254.005 396.382L239.407 392.164ZM215.467 373.984L214.884 383.438C214.884 383.583 214.884 383.729 215.029 383.729C215.175 383.874 215.175 383.874 215.321 383.874H219.263L218.825 394.491L213.57 393.473L205.541 391.873C207.001 385.91 208.023 379.802 208.607 373.693L215.467 373.984ZM212.986 394.055C211.964 399.436 210.358 407.435 209.628 409.035L201.162 405.254C202.768 401.036 204.081 396.818 205.249 392.6L212.986 394.055ZM209.191 409.762C208.315 411.071 206.271 414.853 200.432 426.051C199.118 428.669 197.804 431.142 196.637 433.469L189.484 429.251C191.09 426.197 192.841 422.852 194.739 419.216C197.075 414.853 199.118 410.489 200.724 405.981L209.191 409.762ZM196.345 434.196C194.739 437.396 193.279 440.013 192.549 441.613L184.813 438.268C186.126 435.796 187.586 433.032 189.192 430.124L196.345 434.196ZM209.92 410.053L213.57 411.653L214.154 415.289L211.526 426.051L199.118 444.522L193.425 441.904C199.556 429.396 208.607 412.089 209.92 410.053ZM212.11 426.342L214.884 415.289C214.884 415.289 214.884 415.289 214.884 415.143L214.3 411.217C214.3 411.071 214.154 410.926 214.008 410.926L210.358 409.326C210.65 408.599 211.088 407.144 211.818 403.508L216.343 404.526C216.489 404.526 216.781 404.381 216.781 404.236C216.781 404.236 216.781 404.236 216.781 404.09C216.781 403.945 216.635 403.799 216.489 403.654L211.964 402.636C212.402 400.454 212.986 397.691 213.716 394.055L218.971 395.073L231.671 393.619L216.635 429.542L214.154 430.269C214.008 430.269 214.008 430.415 213.862 430.415L210.212 436.378L204.811 446.704L199.702 444.377L212.11 426.342ZM210.796 437.396L221.014 441.759L216.635 452.23L205.687 447.431L210.796 437.396ZM203.352 450.776L195.907 473.901L189.776 470.847L197.95 448.304L203.352 450.776ZM200.14 463.575L202.33 465.611L197.513 474.773C197.367 474.773 197.367 474.628 197.221 474.628L196.491 474.337L200.14 463.575ZM203.06 466.192L211.234 472.883L204.081 481.464C201.746 479.137 199.848 477.1 198.096 475.355L203.06 466.192ZM195.177 478.118C195.177 478.118 195.323 478.264 195.177 478.118L195.761 495.571C195.761 495.717 195.907 495.862 196.053 496.007L216.051 499.353C217.219 500.516 218.387 501.534 219.409 502.698H189.63L188.9 475.064L195.177 478.118ZM222.474 499.934L220.431 494.553L242.765 495.571C242.911 495.571 243.203 495.426 243.203 495.28L243.933 489.754L268.894 492.371C268.164 496.153 267.58 499.353 267.58 501.098C267.58 501.534 267.58 502.116 267.58 502.698H225.248C224.372 501.825 223.496 500.807 222.474 499.934ZM280.134 518.696L281.594 500.371L288.601 501.243L289.477 512.297L290.936 526.259C287.725 525.968 284.513 525.677 281.448 525.532L280.134 518.696ZM281.886 480.009L285.535 469.974L303.49 477.973C303.636 478.118 303.928 477.973 303.928 477.828L312.103 465.174L321.153 469.828C313.708 478.264 306.264 485.972 304.366 486.99C302.322 486.99 292.25 483.791 281.886 480.009ZM303.49 477.1L285.681 469.247L291.082 454.121L311.373 464.738L303.49 477.1ZM285.243 450.049C286.995 445.976 289.477 440.013 292.25 433.323L295.316 434.632C295.462 434.778 295.754 434.632 295.9 434.487V434.341C295.9 434.196 295.754 434.051 295.608 433.905L292.542 432.596C294.002 429.251 295.462 425.615 297.067 421.979L305.096 425.033L302.76 430.124C302.76 430.269 302.76 430.269 302.76 430.415C302.76 430.56 302.906 430.56 302.906 430.705L312.979 435.069L301.593 458.775L285.243 450.049ZM301.009 412.526C304.512 404.236 308.015 396.091 310.935 389.401L316.92 390.128L307.869 414.125L301.009 412.526ZM288.601 431.287L283.346 429.396L295.024 402.927L300.133 404.236C296.337 413.253 292.25 422.852 288.601 431.287ZM290.207 412.089L279.404 408.599L283.93 400.018L294.294 402.781L290.207 412.089ZM276.777 412.089L253.275 401.472L254.735 396.964L258.238 387.946L283.346 399.582L276.777 412.089ZM255.61 392.31L248.458 390.128L241.743 383.147C241.597 383.001 241.451 383.001 241.451 383.001L233.276 384.165L233.568 377.911L239.407 377.329L257.654 387.801L255.61 392.31ZM179.558 278.431C179.558 278.576 179.704 278.867 179.85 279.013C179.996 279.158 180.142 279.304 180.142 279.449C182.623 283.376 184.959 287.594 187.148 291.811C187.148 291.957 187.294 292.102 187.44 292.248C193.863 305.046 198.68 319.445 202.038 335.298C208.169 364.531 204.665 392.019 191.236 417.325C176.492 445.104 170.507 456.739 168.464 460.52C157.515 456.884 136.495 451.649 115.329 446.558C113.285 446.122 111.095 445.54 109.052 445.104C110.512 435.069 120.584 368.458 120.876 367.003C121.168 365.403 124.087 343.588 124.087 342.569V342.424L121.752 329.771L141.896 326.862C142.042 326.862 142.188 326.717 142.188 326.571L145.546 314.936L148.903 303.156L159.997 286.43L175.324 272.032C176.784 274.068 178.244 276.249 179.558 278.431ZM115.037 456.448C115.475 454.848 116.059 452.667 116.351 451.067C121.46 452.376 126.569 453.539 131.532 454.848L129.488 459.066L115.037 456.448ZM110.658 457.03C110.512 457.321 109.782 458.63 109.052 460.229C106.278 465.32 100.877 475.355 97.6658 483.354L90.659 480.736L94.0164 472.737C94.0164 472.592 94.0164 472.446 94.0164 472.301L92.4107 469.538L98.6876 446.849C103.213 447.867 107.884 449.031 112.555 450.049C111.679 452.958 110.949 456.303 110.658 457.03ZM132.408 454.848C142.772 457.466 152.26 459.939 159.559 461.975L130.364 458.921L132.408 454.848ZM48.3263 417.616L51.8297 406.272L63.3617 406.999L61.61 419.07C61.61 419.361 61.756 419.507 61.9019 419.507C62.1939 419.507 62.3399 419.361 62.3399 419.216L64.0916 406.999L78.2511 407.872L76.2075 426.488L68.1789 425.179L55.0411 422.997V420.088C55.0411 419.943 54.8952 419.797 54.7492 419.652L48.3263 417.616ZM47.4504 417.761L44.5309 424.888L41.9034 424.015C42.9252 421.397 44.239 418.052 45.8447 414.125L48.4723 414.562L47.4504 417.761ZM61.464 322.935C62.4858 335.734 64.3835 358.859 64.2375 361.186C64.0916 362.058 61.61 369.185 57.8146 378.929L52.1216 377.911L57.2307 356.241V356.095L55.1871 325.117L61.464 322.935ZM45.6987 328.026L44.8229 320.608L58.6905 315.809L61.318 322.063L54.4572 324.535L45.6987 328.026ZM102.629 226.509L100.147 229.273C100.001 229.418 100.001 229.709 100.147 229.854C100.293 230 100.585 230 100.731 229.854L102.921 227.382L105.694 228.4C105.84 228.4 106.132 228.4 106.132 228.255L108.176 224.619L129.196 239.163C124.817 243.089 119.124 248.18 113.723 253.125L95.0382 231.309C95.0382 231.163 94.8922 231.163 94.7463 231.163C94.6003 231.163 94.6003 231.163 94.4543 231.309L88.0314 236.835L84.674 231.454L81.0246 221.274C81.0246 221.128 81.0246 221.128 80.8787 221.128L63.2157 206.875L63.5077 192.477L68.0329 199.167L68.1789 199.312L109.344 221.419L107.884 223.601L105.84 227.382L103.067 226.364C102.921 226.364 102.775 226.364 102.629 226.509ZM129.488 305.337L133.722 302.865L146.129 309.7L144.816 314.354L138.247 312.609C138.101 312.609 138.101 312.609 137.955 312.609L134.889 313.627C134.889 313.627 134.743 313.627 134.743 313.773L132.408 316.1L125.839 312.464C125.693 312.464 125.547 312.464 125.401 312.464L121.898 314.5L118.394 311.446L124.671 301.701L128.904 305.337C129.196 305.483 129.342 305.483 129.488 305.337ZM122.19 315.227L125.693 313.191L132.408 316.827C132.554 316.972 132.7 316.827 132.846 316.827L135.327 314.354L138.101 313.336L144.524 315.082L141.458 326.135L121.606 329.044L118.54 312.464L121.752 315.082C121.898 315.227 122.044 315.372 122.19 315.227ZM122.773 303.301L112.117 292.684C111.971 292.539 111.679 292.539 111.533 292.684C111.387 292.829 111.387 293.12 111.533 293.266L122.336 304.028L117.664 311.3C117.664 311.3 117.664 311.3 117.664 311.446C117.664 311.446 117.664 311.446 117.664 311.591L120.876 329.189L99.4175 328.171L101.315 318.718C101.315 318.572 101.315 318.427 101.169 318.281L94.6003 314.354L90.659 308.537L98.1037 302.428C98.2497 302.283 98.2497 302.138 98.2497 301.992L95.7681 296.029L106.862 288.612L111.825 283.521L117.664 288.612C117.81 288.757 118.102 288.757 118.248 288.612L130.072 277.267C130.218 277.122 130.218 277.122 130.218 276.977C130.218 276.831 130.218 276.831 130.072 276.686L124.233 270.723L134.013 260.833L146.129 271.886L139.998 276.249C139.998 276.249 139.852 276.249 139.852 276.395L122.773 303.301ZM111.679 398.127L108.906 399.291C108.76 399.291 108.614 399.436 108.614 399.582L107.446 408.744L98.1037 408.162L100.147 394.346L115.475 395.8C115.329 396.673 115.183 397.545 115.037 398.418L111.679 398.127ZM105.986 419.798H96.7899L97.9577 409.035L107.3 409.617L105.986 419.798ZM108.176 409.617L113.431 409.908C112.993 413.253 112.409 416.598 111.971 419.798H106.862L108.176 409.617ZM75.7695 373.112C75.9155 373.112 75.9155 372.966 75.9155 372.821L76.7914 367.73C76.7914 367.585 76.6454 367.294 76.4994 367.294C76.2075 367.294 76.0615 367.44 76.0615 367.585L75.3316 372.384L63.0697 370.203L63.9456 367.44C64.6755 365.403 65.2594 363.658 65.5513 362.64L84.674 364.24L78.3971 407.144L52.1216 405.545L62.7778 370.93L75.6236 373.112C75.6236 373.257 75.6236 373.112 75.7695 373.112ZM65.6973 361.767C65.6973 361.622 65.8433 361.477 65.8433 361.331C65.8433 361.186 65.8433 360.895 65.8433 360.604C65.8433 358.713 65.5513 354.059 65.1134 348.678L86.1338 349.114L84.674 363.222L65.6973 361.767ZM85.2579 364.24L103.651 365.84L97.2278 408.162L79.127 407.144L85.2579 364.24ZM97.2278 409.035L96.352 417.18L78.2511 415.725L79.127 407.872L97.2278 409.035ZM108.176 408.89L109.344 400.018L111.825 399L115.037 399.291C114.599 402.636 114.015 405.981 113.577 409.18L108.176 408.89ZM100.293 393.619L101.899 383.001L116.934 386.492C116.497 389.255 116.059 392.164 115.621 395.073L100.293 393.619ZM102.045 382.129L104.527 365.985L119.854 367.294C119.562 369.185 118.394 376.311 117.08 385.619L102.045 382.129ZM85.4039 363.513C85.4039 363.367 85.4039 363.367 85.4039 363.513L89.0533 328.462L98.8336 329.044L120.876 329.916L123.211 342.569C123.065 343.878 120.584 363.367 120 366.421L85.4039 363.513ZM93.4325 243.526L88.7613 237.272L95.0382 231.891L100.001 237.708L93.4325 243.526ZM100.585 238.29L107.008 245.707L99.1255 250.798L94.0164 243.962L100.585 238.29ZM87.8855 237.272L98.3956 251.379L75.9155 266.069L65.1134 239.308L84.528 231.745L87.8855 237.272ZM99.1255 251.816L107.446 246.434L113.431 253.416C110.22 256.324 107.3 259.088 104.673 261.415C99.8554 265.778 95.9141 270.286 92.4107 274.213C88.0314 279.304 84.0901 283.667 80.7327 284.976C80.7327 284.976 80.5867 284.976 80.5867 285.121L73.142 268.832L99.1255 251.816ZM101.023 281.049L105.986 288.175L95.1842 295.302L85.9878 286.285C86.2797 285.994 86.5717 285.848 86.8636 285.557L101.023 281.049ZM112.409 283.085L123.795 271.45L129.196 276.977L117.956 287.739L112.409 283.085ZM134.597 260.397L143.064 251.234L155.034 262.578L146.713 271.45L134.597 260.397ZM133.722 260.106L106.57 287.739L101.461 280.322C101.315 280.176 101.169 280.176 101.023 280.176L88.4694 284.394C90.659 282.358 92.8486 279.74 95.4761 276.831C98.8336 272.904 102.775 268.541 107.446 264.323C114.599 257.779 125.693 247.743 132.846 241.49L142.626 250.798L133.722 260.106ZM80.7327 221.274L84.2361 231.018L64.6755 238.581L58.3985 223.601L62.6318 221.855C62.7778 221.855 62.9238 221.71 62.9238 221.564L63.2157 208.039L80.7327 221.274ZM64.0916 239.163L75.0397 266.505L72.4121 268.25C72.2662 268.396 72.1202 268.541 72.2662 268.687L79.8568 285.267C77.6672 286.285 72.8501 288.321 66.7191 290.939C58.9824 273.777 47.3045 247.889 40.0057 231.309L57.8146 223.746L64.0916 239.163ZM78.1051 290.502L80.8787 297.483C81.0246 297.629 81.1706 297.774 81.4626 297.774C81.6085 297.774 81.7545 297.629 81.7545 297.338V297.193L78.981 290.212C80.7327 289.484 81.9005 288.903 82.4844 288.757C83.5062 288.321 84.528 287.739 85.5499 287.012L94.8922 296.32L97.3738 302.283L89.7831 308.391C89.6372 308.537 89.6372 308.828 89.6372 308.973L93.8704 315.082L94.0164 315.227L100.439 319.154L98.5416 328.462L88.9073 327.88C87.5935 325.989 75.6236 309.846 74.7477 308.682C74.4558 308.246 71.9742 302.865 68.3248 295.011C72.2662 293.12 75.6236 291.666 78.1051 290.502ZM88.3234 328.462L86.2797 348.387L65.1134 347.951C64.5295 340.679 63.9456 332.243 63.5077 327.008L88.3234 328.462ZM57.3767 379.656C53.7274 389.401 48.9102 401.472 44.385 413.107L41.1735 412.526L51.8297 378.784L57.3767 379.656ZM58.9824 379.947L48.6182 413.835L45.9907 413.398C49.932 403.363 55.0411 390.419 58.9824 379.947ZM67.595 425.906L66.1352 435.214C64.3835 434.778 62.6318 434.487 61.1721 434.051C56.7928 433.032 53.2894 432.305 51.8297 431.869L54.8951 423.579L67.595 425.906ZM68.4708 426.051L76.0615 427.36L75.0397 437.25C72.1202 436.523 69.4926 435.941 67.0111 435.359L68.4708 426.051ZM78.1051 416.598L96.206 418.052L95.1842 426.633L85.9878 425.906C85.8418 425.906 85.6958 425.906 85.6958 426.051C85.5499 426.197 85.5499 426.197 85.5499 426.342V428.233C85.5499 428.378 85.6958 428.524 85.8418 428.669L94.7463 430.269L93.4325 441.613C87.1556 440.159 81.1706 438.705 75.7695 437.541L78.1051 416.598ZM96.6439 420.525H111.825C111.095 425.76 110.366 430.56 109.782 434.487C99.8554 432.887 96.6439 432.451 95.4761 432.305L96.6439 420.525ZM94.8922 429.251L86.4257 427.651V426.633L95.1842 427.36L94.8922 429.251ZM80.5867 442.631L74.7477 467.792L70.3685 465.174L72.4121 455.721L75.0397 441.468C76.9373 441.759 78.689 442.195 80.5867 442.631ZM94.3083 441.613L95.3302 433.178C97.0819 433.469 104.527 434.632 109.636 435.359C109.052 439.723 108.468 443.068 108.176 444.813C103.505 443.795 98.8336 442.631 94.3083 441.613ZM174.74 271.45L159.559 285.703L149.487 274.068L158.099 266.069L163.354 267.087C163.5 267.087 163.646 267.087 163.646 266.941L168.026 263.305C170.653 265.923 172.697 268.541 174.74 271.45ZM167.88 262.724L163.646 266.36L158.391 265.341C158.245 265.341 158.099 265.341 158.099 265.487L149.049 273.922C148.903 274.068 148.903 274.359 149.049 274.504L159.413 286.576L148.319 303.156V303.301L146.567 309.264L134.159 302.428C134.013 302.428 133.868 302.428 133.722 302.428L129.634 304.901L125.547 301.41L140.582 276.977L146.275 272.904L144.378 285.121L141.166 287.157L141.02 287.303L137.809 293.702C137.663 293.848 137.809 293.993 137.955 294.138L142.918 298.502C143.064 298.647 143.356 298.647 143.502 298.502L148.465 293.411L151.239 290.502C151.384 290.357 151.384 290.066 151.239 289.921C151.093 289.775 150.801 289.775 150.655 289.921L148.173 292.539L145.546 289.775C145.4 289.63 145.108 289.63 144.962 289.775C144.816 289.921 144.816 290.212 144.962 290.357L147.589 293.12L145.4 295.302L142.334 291.666C142.188 291.52 141.896 291.52 141.75 291.666C141.604 291.811 141.604 292.102 141.75 292.248L144.816 295.884L143.21 297.629L138.831 293.702L141.75 287.594L145.108 285.557C145.254 285.557 145.254 285.412 145.254 285.267L147.297 272.032L162.187 256.324C164.084 258.506 165.982 260.542 167.88 262.724ZM153.866 248.616C156.494 250.943 159.121 253.416 161.603 255.888L155.764 261.996L143.356 250.361L133.284 240.908C135.473 239.017 137.079 237.417 138.247 236.545C144.378 241.053 149.779 245.125 153.866 248.616ZM134.889 234.072C133.722 235.09 132.116 236.545 130.072 238.29L108.906 223.746L112.555 218.51C120.584 223.891 128.174 229.127 134.889 234.072ZM111.825 218.074L109.928 220.837C109.928 220.837 109.928 220.837 109.782 220.692L95.0382 212.838L97.8117 208.766C102.629 211.82 107.3 215.02 111.825 218.074ZM97.2278 208.329L94.4543 212.402L68.7628 198.585L63.7996 191.168L65.9892 188.259C76.0615 194.658 86.7177 201.494 97.2278 208.329ZM27.4519 185.932C27.4519 185.786 27.3059 185.786 27.1599 185.641L24.3864 185.35L23.9485 179.678L38.8379 171.097C41.7574 172.988 44.9689 174.879 48.3263 176.915L43.3631 183.459L29.7875 190.441L27.4519 185.932ZM23.5106 205.857L27.3059 203.675C27.4519 203.53 27.5979 203.385 27.4519 203.239L24.5324 194.367L29.7875 191.604L43.8011 184.332C43.8011 184.332 43.947 184.332 43.947 184.187L48.9102 177.642C54.0193 180.842 59.5663 184.332 65.2594 187.968L62.9238 191.022V191.168L62.6318 206.584L51.9757 205.275H51.8297L28.1818 215.456L23.5106 205.857ZM31.3932 223.164L28.1818 216.183L51.6837 206.002L62.3399 207.311L62.0479 221.128L39.1299 230.872L34.7506 232.327L31.3932 223.164ZM25.7002 236.254L39.1299 231.745C41.9034 237.999 56.5009 270.577 65.9892 291.375C61.9019 293.12 57.2307 295.156 52.4136 297.193L25.7002 236.254ZM67.595 295.156C71.2443 303.156 73.8719 308.682 74.1638 309.119C75.0397 310.137 85.5499 324.39 87.8855 327.735L63.3617 326.28C63.2157 323.808 63.0697 322.208 62.9238 321.917C62.9238 321.772 62.9238 321.772 62.9238 321.626L54.0193 300.974C58.8365 298.792 63.5077 296.902 67.595 295.156ZM52.4136 301.556L58.2526 315.082L44.5309 319.881L38.546 307.519C43.2172 305.483 47.8884 303.592 52.4136 301.556ZM24.2404 313.627C28.3277 311.882 32.9989 309.846 37.9621 307.81L43.947 320.172L28.0358 325.989L24.2404 313.627ZM28.1818 326.717L44.093 320.899L46.5746 342.133L33.8748 345.624L28.1818 326.717ZM38.8379 362.349L34.0208 346.351L46.5746 343.006L47.3045 349.987L44.6769 362.495L38.8379 362.349ZM38.8379 363.076L44.9689 363.222C45.1148 363.222 45.4068 363.076 45.4068 362.931L48.1803 349.987C48.1803 349.987 48.1803 349.987 48.1803 349.841L45.6987 328.753L54.1653 325.408L56.2089 355.95L51.0998 377.62L36.3564 375.148L38.8379 363.076ZM32.2691 396.527L36.3564 376.166L50.9538 378.638L40.2977 412.38L32.9989 411.071L32.2691 396.527ZM33.2909 420.961L32.853 411.944L40.1517 413.253L40.2977 413.398C40.4436 413.398 40.5896 413.398 40.5896 413.398L43.947 413.98C42.6333 417.325 41.3195 420.525 40.1517 423.579L33.2909 420.961ZM33.5828 425.324L33.4369 421.834L40.1517 424.161C39.8597 425.033 39.4218 425.906 39.1299 426.633L33.5828 425.324ZM40.5896 427.215C40.8816 426.633 41.1735 425.76 41.6114 424.742L44.239 425.615L43.2172 428.233C42.1953 427.942 41.3195 427.506 40.5896 427.215ZM43.8011 428.669L48.0343 418.489L54.1653 420.379V423.288L50.9538 431.869C49.932 431.287 46.8665 429.978 43.8011 428.669ZM26.868 473.174L29.6415 454.703L34.4587 473.61L26.868 473.174ZM23.2186 497.316L26.722 473.901L34.4587 474.337L30.3714 499.498L23.2186 497.316ZM40.2977 502.552L47.8884 490.044L57.2307 491.935L52.5596 500.225C52.4136 500.371 52.5596 500.661 52.7055 500.807C52.8515 500.952 53.1435 500.807 53.2894 500.661L58.1066 492.081C58.2526 492.081 58.3985 492.081 58.5445 491.935L63.0697 489.026L68.0329 492.081L57.0848 508.079L51.8297 504.734C51.6837 504.734 51.6837 504.588 51.5377 504.588L40.2977 502.552ZM57.9606 520.877L40.1517 509.824L41.4655 504.443L51.0998 506.334L62.9238 513.751L57.9606 520.877ZM77.3753 521.023L57.8146 508.661L68.7628 492.662L87.4475 504.152C84.528 509.388 81.0246 515.351 77.3753 521.023ZM88.3234 502.698L63.5077 487.572C63.2157 487.427 62.9238 487.427 62.6318 487.572L57.9606 490.481L47.7424 488.299C47.4504 488.299 47.0125 488.445 46.8665 488.736L38.8379 502.261L31.1013 499.789L35.3345 474.046C35.3345 474.046 35.3345 474.046 35.3345 473.901L32.415 462.411L41.0275 461.538C41.1735 461.538 41.3195 461.393 41.3195 461.248L41.9034 457.757L49.2021 456.884C49.3481 456.884 49.4941 456.739 49.4941 456.448L49.932 450.921C49.932 450.776 49.786 450.485 49.4941 450.485C49.2021 450.485 49.0562 450.631 49.0562 450.921L48.6182 456.157L41.3195 457.03C41.1735 457.03 41.0275 457.175 41.0275 457.321L40.4436 460.811L31.9771 461.684L29.6415 452.667L32.9989 429.542L38.546 430.851C40.0057 431.578 47.8884 435.069 49.4941 435.65C49.786 435.796 51.5377 436.087 58.5445 437.686V448.304L54.1653 449.612C54.0193 449.612 54.0193 449.758 53.8733 449.903C53.8733 450.049 53.8733 450.194 53.8733 450.194L55.917 454.848C56.063 454.994 56.2089 455.139 56.5009 454.994C56.7928 454.848 56.7928 454.703 56.6469 454.412L54.7492 450.194L58.9824 448.885C59.1284 448.885 59.2744 448.74 59.2744 448.449V437.832C59.4204 437.832 59.7123 437.977 59.8583 437.977C63.6536 438.85 68.6168 440.014 74.0179 441.177L71.3903 454.994L66.4272 452.376L67.449 445.54C67.449 445.249 67.303 445.104 67.157 445.104C66.8651 445.104 66.7191 445.249 66.7191 445.395L65.5513 452.521C65.5513 452.667 65.5513 452.812 65.6973 452.958L71.0984 455.721L69.0547 464.738L66.2812 463.138C66.1352 462.993 65.8433 463.138 65.6973 463.284C65.5513 463.429 65.6973 463.72 65.8433 463.865L73.8719 468.52L71.5363 478.7C71.5363 478.846 71.6823 479.137 71.8282 479.137C71.9742 479.137 72.2662 478.991 72.2662 478.846L80.4407 442.631C85.5499 443.795 91.0969 445.104 96.9359 446.413L90.659 469.247C90.659 469.392 90.659 469.538 90.659 469.538L92.2647 472.301L88.7613 480.591C88.7613 480.736 88.7613 480.736 88.7613 480.882C88.7613 481.027 88.9073 481.027 89.0533 481.173L96.498 483.936C96.06 484.954 95.7681 485.827 95.4761 486.699C95.1842 489.899 92.1187 495.862 88.3234 502.698ZM95.7681 497.316C97.8117 493.535 99.2715 490.19 100.001 488.008C100.731 485.972 101.607 483.645 102.775 481.173L107.592 483.5C107.738 483.645 108.03 483.5 108.176 483.354V483.209C108.176 483.063 108.03 482.918 107.884 482.918L103.067 480.445C106.132 473.61 110.22 466.192 112.409 461.975C113.577 459.793 114.015 458.921 114.307 458.484C114.453 458.193 114.599 457.757 114.745 457.175L129.196 459.648L108.906 502.552C103.943 500.661 98.8336 498.625 95.7681 497.316ZM109.782 502.843L130.072 459.793L146.275 461.538L129.05 499.062L123.211 496.589C123.065 496.444 122.773 496.589 122.627 496.735L117.956 505.752C115.475 504.879 112.555 503.861 109.782 502.843ZM120.876 506.624C120.146 506.479 119.416 506.188 118.686 506.043L123.211 497.462L128.758 499.789L125.255 507.497C123.649 507.352 122.19 507.061 120.876 506.624ZM146.275 508.515C143.94 508.515 134.013 508.806 125.985 507.643L147.005 461.538L163.792 463.284L146.275 508.515ZM172.259 462.12C173.719 459.357 176.784 453.394 183.061 441.613L197.221 447.867L189.046 470.41L172.259 462.12ZM171.675 466.338L179.704 470.265L178.682 502.698L171.675 466.338ZM189.484 524.077L187.732 526.113L179.704 508.079L179.412 506.479L180.579 470.701L188.462 474.628L189.484 524.077ZM201.308 520.296L200.286 515.642C200.286 515.496 200.14 515.351 199.848 515.351H190.068L189.776 503.425H220.285C221.16 504.297 221.89 505.025 222.766 505.897L209.628 506.188C209.482 506.188 209.336 506.334 209.336 506.479L208.315 508.951L198.242 508.37C197.95 508.37 197.804 508.515 197.804 508.806C197.804 508.952 197.95 509.242 198.242 509.242L208.023 509.824L205.103 516.369C204.957 516.514 205.103 516.805 205.249 516.805L207.585 518.405L207.293 521.314L201.308 520.296ZM208.023 521.459L208.461 518.26C208.461 518.114 208.461 517.969 208.315 517.823L206.125 516.369L210.212 507.061L223.788 506.77C226.853 509.679 229.773 512.587 232.4 515.06L218.241 515.496C217.949 515.496 217.803 515.642 217.803 515.933V518.987L212.402 518.405C212.256 518.405 211.964 518.55 211.964 518.696L211.38 522.186L208.023 521.459ZM211.38 529.313L212.11 522.623L212.694 519.132L217.803 519.569L216.635 528.877C216.635 529.022 216.635 529.022 216.635 529.022L211.38 529.313ZM217.365 529.022C217.365 529.022 217.511 529.022 217.365 529.022L218.533 519.278V516.223L233.13 515.787C233.276 515.933 233.422 516.078 233.568 516.223V528.44L217.365 529.022ZM246.706 528.004L234.444 528.44V516.951C238.531 520.732 241.889 523.641 243.641 524.659C245.1 525.532 246.998 526.259 249.042 526.695L246.706 528.004ZM343.195 531.785C324.365 529.895 304.512 527.859 294.294 526.695C293.418 526.55 292.688 526.55 291.812 526.404L290.207 512.297V512.006L345.093 516.805H345.239L343.195 531.785ZM346.553 508.951L345.531 516.223C345.531 516.223 345.385 516.078 345.239 516.078L290.207 511.279L289.477 501.534L346.553 508.951ZM346.553 508.079L327.576 505.606L336.481 478.409L350.494 483.645L346.553 508.079ZM351.808 475.501L336.772 470.701C336.626 470.701 336.335 470.701 336.335 470.992C336.335 471.137 336.335 471.428 336.626 471.428L351.662 476.228H351.808L350.786 482.627L336.481 477.391C336.335 477.391 336.335 477.391 336.189 477.391C336.043 477.391 336.043 477.537 336.043 477.682L326.992 505.461L305.096 502.552L306.702 490.335C310.351 488.008 318.088 479.864 325.094 471.719L331.371 475.064L326.116 482.772L323.197 482.191C323.051 482.191 322.905 482.191 322.759 482.336L320.277 485.1C320.131 485.245 320.131 485.536 320.277 485.681C320.423 485.827 320.715 485.827 320.861 485.681L323.197 483.063L326.116 483.645C326.262 483.645 326.408 483.645 326.554 483.5L332.247 475.21C332.247 475.21 332.247 475.064 332.247 474.919C332.247 474.919 332.247 474.919 332.247 474.773C332.247 474.628 332.101 474.628 332.101 474.483L325.532 471.137C326.554 469.974 327.576 468.81 328.598 467.647C328.744 467.501 340.276 452.958 353.997 452.521C354.581 452.521 355.019 452.521 355.603 452.521L351.808 475.501ZM340.86 452.085C331.955 456.739 325.824 464.302 325.24 465.029C324.073 466.338 322.905 467.792 321.591 469.101L302.03 458.775L307.432 447.431L316.774 450.194C316.92 450.194 317.212 450.194 317.212 449.903V449.758C317.212 449.612 317.066 449.467 316.92 449.322L307.723 446.558L310.789 440.159L327.138 445.977C327.284 445.977 327.43 445.976 327.576 445.831L329.912 443.068L340.86 452.085ZM334.583 434.341L329.766 442.631L327.43 445.54L311.373 439.868L313.708 434.923V434.778V434.632C313.708 434.487 313.562 434.487 313.417 434.341L303.344 429.978L305.534 425.179L334.583 434.341ZM335.021 433.614L326.262 430.851L330.058 417.616L340.714 420.379L335.021 433.614ZM357.355 412.38L351.808 433.032L338.816 427.215L341.736 420.379L345.531 410.053L357.355 412.38ZM355.749 394.782L350.64 410.053L345.239 408.89L327.43 404.09L328.744 391.292L355.749 394.782ZM323.051 390.855L321.007 400.163C321.007 400.454 321.153 400.6 321.299 400.6C321.591 400.6 321.737 400.454 321.737 400.309L323.781 390.855L328.014 391.292L326.7 404.381C326.7 404.526 326.846 404.817 326.992 404.817L344.655 409.617L341.006 419.507L321.737 414.562C321.591 414.562 321.591 414.562 321.445 414.562L317.066 416.016L308.891 414.125L317.942 389.983L323.051 390.855ZM330.35 375.584L325.24 390.273L319.985 389.692L325.094 374.711C326.992 375.002 328.744 375.293 330.35 375.584ZM324.365 374.566L319.255 389.546L311.373 388.528C315.168 379.802 317.796 373.693 317.942 373.403C317.942 373.257 317.942 373.257 318.088 373.112C320.131 373.693 322.321 374.13 324.365 374.566ZM313.854 372.53C312.541 375.584 306.848 388.674 300.571 403.508L295.462 402.199L308.891 371.657C310.643 371.948 312.249 372.239 313.854 372.53ZM308.161 371.366L294.732 401.909L284.368 399.145L299.549 369.767C302.468 370.348 305.242 370.93 308.161 371.366ZM298.673 369.621L283.638 398.854L258.53 387.219L267.726 363.367C276.923 365.258 287.871 367.44 298.673 369.621ZM314.876 368.603C310.497 367.73 305.972 366.858 301.447 365.985L313.417 342.86L321.299 346.06C318.38 355.659 316.19 364.094 314.876 368.603ZM321.591 345.333L313.854 342.133V341.988L314.584 337.188C314.584 337.043 314.584 336.897 314.438 336.897L308.599 331.662L318.818 319.881C322.321 323.372 325.532 326.717 327.43 328.462C325.24 334.134 323.343 339.952 321.591 345.333ZM337.794 305.192C334.145 311.446 330.788 319.299 327.722 327.589C321.445 321.335 309.621 309.409 307.14 305.919C306.994 305.628 306.702 305.337 306.702 305.192C306.41 304.465 302.176 294.72 296.337 281.34L319.255 273.632L330.204 297.047L338.086 304.319C338.086 304.61 337.94 304.901 337.794 305.192ZM338.67 303.737L331.079 296.902L336.772 285.994L346.699 287.885C344.509 292.829 341.882 298.065 338.67 303.737ZM346.991 286.866L336.626 284.976C336.481 284.976 336.335 284.976 336.189 285.121L330.496 295.884L319.985 273.341L340.86 266.36L341.59 268.832C341.736 269.268 342.174 269.559 342.611 269.414C342.903 269.268 343.195 268.977 343.195 268.687C343.195 268.687 343.195 268.541 343.195 268.396L342.465 265.778L354.143 262.287C352.83 270.723 350.494 278.576 346.991 286.866ZM355.165 244.98C355.165 250.798 354.873 256.324 354.143 261.706L342.174 265.341L335.605 242.071L354.727 235.527C355.019 238.872 355.165 242.071 355.165 244.98ZM354.727 234.654L350.056 236.254L343.925 203.675L351.224 202.512C352.538 212.547 353.997 224.473 354.727 234.654ZM348.013 180.987C348.305 182.732 349.618 191.168 351.078 201.639L343.779 202.803L339.692 180.842L348.013 180.987ZM338.816 180.842L339.984 187.095C338.378 187.241 336.626 187.532 334.875 187.823L334.145 180.842H338.816ZM333.415 180.842L334.145 187.968C329.474 188.55 324.949 189.132 324.657 189.132C324.365 189.132 324.219 189.277 324.219 189.568C324.219 189.859 324.365 190.004 324.657 190.004C325.095 190.004 330.058 189.422 334.291 188.841L335.897 204.112L320.131 206.584L318.526 190.15L319.401 180.842H333.415ZM347.867 180.114C347.867 180.114 347.867 180.26 347.867 180.114H339.546L340.568 167.316L348.888 168.188L347.867 180.114ZM350.786 146.518L349.034 167.316L340.714 166.443L341.59 156.262L342.465 145.209L350.786 146.518ZM353.706 125.429L351.954 132.701C351.954 132.701 351.954 132.701 351.954 132.847V132.992L350.932 145.791L342.611 144.627L344.363 123.684C348.45 124.411 351.662 124.993 353.706 125.429ZM343.341 123.393L341.59 144.336L326.116 142.009L328.598 120.484C334.291 121.503 339.254 122.521 343.341 123.393ZM327.868 120.339L325.386 141.864L323.635 141.573L310.059 139.537L305.388 138.81L293.856 137.064L282.324 135.319L271.376 133.719C268.456 129.211 266.559 126.011 266.267 125.284C266.267 124.266 267.434 117.285 268.894 108.704C289.623 112.922 311.373 117.139 327.868 120.339ZM266.997 108.558C265.537 116.994 264.369 124.557 264.369 125.429C264.369 126.011 266.121 129.065 268.894 133.283L258.53 130.374L254.589 119.612L252.545 113.94L249.334 105.068C254.881 106.231 260.866 107.395 266.997 108.558ZM248.166 104.922L251.377 113.649L231.671 111.322L232.692 102.014C237.656 102.886 242.765 103.904 248.166 104.922ZM231.963 101.868L230.795 111.613L230.211 116.267L229.481 122.521L219.117 116.703H218.971L177.222 109.722L170.653 91.2512C180.142 92.7056 189.776 94.16 196.345 95.3235C201.016 96.0507 214.592 98.5232 231.963 101.868ZM219.993 68.5628C222.766 67.5447 225.102 66.3812 227.291 65.2177C231.963 62.8907 234.444 61.7271 236.196 63.9087C238.677 66.9629 244.954 92.5602 246.998 100.559C242.181 99.6867 237.656 98.814 233.276 97.9414L234.152 90.524C234.152 90.2332 234.006 90.0877 233.86 90.0877C233.568 90.0877 233.422 90.2332 233.422 90.3786L232.546 97.6505C218.241 94.8872 206.709 92.7056 200.432 91.6875L203.497 73.7986C208.315 72.4896 215.175 70.308 219.993 68.5628ZM138.831 68.2719L182.039 66.2357L196.491 75.8347C196.637 75.8347 196.783 75.9801 196.783 75.8347C196.783 75.8347 199.118 75.1075 202.476 74.2349L199.556 91.6875C198.534 91.5421 197.804 91.3967 197.221 91.2512C180.433 88.4879 143.502 82.9612 141.312 82.5249C139.707 78.3072 138.101 74.3803 136.787 70.5989L138.831 68.2719ZM145.546 105.359L128.029 110.74L108.468 56.2005L116.059 47.9105L122.627 46.0198C125.401 52.8554 135.327 78.8889 145.546 105.359ZM96.352 47.3287L107.738 43.9836L113.577 44.7108C113.577 44.7108 113.431 44.7108 113.431 44.8562L98.2497 61.4363L96.6439 49.2194L96.352 47.3287ZM43.5091 60.2728L86.8636 46.3106L95.9141 49.6557L97.5198 62.3089L90.805 69.5808C88.9073 70.308 82.3384 72.6351 81.1706 73.0714C80.2948 73.3623 73.288 78.1617 65.2594 83.6884L59.2744 76.9982C59.1284 76.8528 58.9824 76.8528 58.8365 76.8528L50.078 81.5068L43.947 73.2168L43.8011 73.0714L35.6265 68.4173L43.5091 60.2728ZM34.3127 67.6901L29.2036 64.7814L25.9921 61.5817L29.4955 58.6729L36.0644 61.2908L34.3127 67.6901ZM36.5023 60.5636L30.3714 58.0912L36.7943 53.0008L38.4 54.3098L36.5023 60.5636ZM38.546 53.5826L37.3782 52.5645L39.2759 50.9647L38.546 53.5826ZM45.5528 36.2754L49.786 41.6566L40.8816 48.7831L44.239 37.5843C44.5309 37.148 45.1148 36.7117 45.5528 36.2754ZM42.9252 38.6024L39.7138 49.6557L36.7943 51.9827L32.9989 47.4741C36.2104 44.5654 39.5678 41.5112 42.9252 38.6024Z" fill="white"/>
<path d="M70.2225 30.7487L71.9742 30.021H69.0547L69.7846 30.6032C69.9305 30.7487 70.0765 30.7487 70.2225 30.7487Z" fill="white"/>
<path d="M22.4887 30.0215L22.3428 30.167V31.0403L23.9485 30.0215H22.4887Z" fill="white"/>
<rect x="333.805" y="-0.812012" width="341.929" height="341.929" transform="rotate(90 333.805 -0.812012)" fill="url(#paint1_linear_443_2712)"/>
<path d="M216.212 78.5526H240.125V74.0175C240.125 69.084 236.125 65.0846 231.192 65.0846H225.145C220.211 65.0846 216.212 69.084 216.212 74.0175V78.5526Z" stroke="white" stroke-width="7.97091"/>
<rect x="59.2671" y="79.377" width="207.518" height="145.675" rx="24.5999" fill="white" fill-opacity="0.78" stroke="white" stroke-width="8.52062"/>
<circle cx="83.8671" cy="103.152" r="9.62006" fill="url(#paint2_linear_443_2712)"/>
<g filter="url(#filter0_d_443_2712)">
<path fill-rule="evenodd" clip-rule="evenodd" d="M166.341 96.2812C205.806 96.2812 237.798 128.274 237.798 167.739C237.798 197.998 218.991 223.865 192.427 234.286L170.411 264.379C169.952 265.009 169.342 265.524 168.634 265.879C167.925 266.234 167.139 266.419 166.341 266.419C165.542 266.419 164.756 266.234 164.047 265.879C163.339 265.524 162.73 265.009 162.271 264.379L140.254 234.286C113.691 223.865 94.8828 197.998 94.8828 167.739C94.8828 128.274 126.876 96.2812 166.341 96.2812Z" fill="url(#paint3_linear_443_2712)"/>
<path d="M196.965 167.739C196.965 150.825 183.254 137.114 166.341 137.114C149.427 137.114 135.716 150.825 135.716 167.739C135.716 184.653 149.427 198.364 166.341 198.364C183.254 198.364 196.965 184.653 196.965 167.739Z" fill="#BE2E28"/>
<g filter="url(#filter1_d_443_2712)">
<path d="M166.712 221.427C197.704 221.427 222.827 196.386 222.827 165.495C222.827 134.605 197.704 109.563 166.712 109.563C135.72 109.563 110.597 134.605 110.597 165.495C110.597 196.386 135.72 221.427 166.712 221.427Z" fill="url(#paint4_linear_443_2712)"/>
<path d="M166.711 214.709C193.98 214.709 216.085 192.675 216.085 165.495C216.085 138.316 193.98 116.282 166.711 116.282C139.442 116.282 117.336 138.316 117.336 165.495C117.336 192.675 139.442 214.709 166.711 214.709Z" fill="url(#paint5_linear_443_2712)"/>
<path d="M166.71 207.995C190.259 207.995 209.349 188.968 209.349 165.496C209.349 142.025 190.259 122.998 166.71 122.998C143.162 122.998 124.072 142.025 124.072 165.496C124.072 188.968 143.162 207.995 166.71 207.995Z" fill="#13161F"/>
<path d="M166.71 206.652C189.513 206.652 207.998 188.227 207.998 165.499C207.998 142.771 189.513 124.347 166.71 124.347C143.908 124.347 125.423 142.771 125.423 165.499C125.423 188.227 143.908 206.652 166.71 206.652Z" fill="url(#paint6_linear_443_2712)"/>
<path opacity="0.5" d="M166.71 206.652C189.513 206.652 207.998 188.227 207.998 165.499C207.998 142.771 189.513 124.347 166.71 124.347C143.908 124.347 125.423 142.771 125.423 165.499C125.423 188.227 143.908 206.652 166.71 206.652Z" fill="url(#paint7_radial_443_2712)"/>
<path d="M166.71 199.926C185.79 199.926 201.257 184.51 201.257 165.493C201.257 146.475 185.79 131.059 166.71 131.059C147.63 131.059 132.163 146.475 132.163 165.493C132.163 184.51 147.63 199.926 166.71 199.926Z" fill="#13161F"/>
<path d="M166.712 198.587C185.048 198.587 199.912 183.771 199.912 165.495C199.912 147.219 185.048 132.403 166.712 132.403C148.376 132.403 133.512 147.219 133.512 165.495C133.512 183.771 148.376 198.587 166.712 198.587Z" fill="url(#paint8_radial_443_2712)"/>
<path d="M166.715 190.08C180.336 190.08 191.378 179.074 191.378 165.497C191.378 151.921 180.336 140.915 166.715 140.915C153.094 140.915 142.052 151.921 142.052 165.497C142.052 179.074 153.094 190.08 166.715 190.08Z" fill="url(#paint9_radial_443_2712)"/>
<path opacity="0.2" d="M166.715 190.08C180.336 190.08 191.378 179.074 191.378 165.497C191.378 151.921 180.336 140.915 166.715 140.915C153.094 140.915 142.052 151.921 142.052 165.497C142.052 179.074 153.094 190.08 166.715 190.08Z" fill="url(#paint10_radial_443_2712)"/>
<path d="M166.714 182.042C175.884 182.042 183.318 174.632 183.318 165.492C183.318 156.352 175.884 148.942 166.714 148.942C157.543 148.942 150.109 156.352 150.109 165.492C150.109 174.632 157.543 182.042 166.714 182.042Z" fill="#1C212E"/>
<path d="M166.71 170.714C169.6 170.714 171.942 168.38 171.942 165.499C171.942 162.619 169.6 160.285 166.71 160.285C163.821 160.285 161.479 162.619 161.479 165.499C161.479 168.38 163.821 170.714 166.71 170.714Z" fill="white"/>
<path opacity="0.7" d="M166.713 171.197C180.699 171.197 192.037 162.513 192.037 151.801C192.037 141.089 180.699 132.405 166.713 132.405C152.727 132.405 141.389 141.089 141.389 151.801C141.389 162.513 152.727 171.197 166.713 171.197Z" fill="url(#paint11_linear_443_2712)"/>
</g>
</g>
<path fill-rule="evenodd" clip-rule="evenodd" d="M180.306 260.04C189.943 261.753 194.869 264.927 194.869 266.551C194.869 268.845 185.056 274.223 166.024 274.223C146.99 274.223 137.176 268.845 137.176 266.551C137.176 264.852 142.556 261.463 153.075 259.818L147.776 254.723C138.196 256.871 131.143 260.848 131.143 266.552C131.143 275.547 148.692 280.252 166.024 280.252C183.356 280.252 200.904 275.546 200.904 266.552C200.904 261.028 194.29 257.124 185.17 254.932L180.306 260.04Z" fill="url(#paint12_linear_443_2712)"/>
</g>
</g>
<ellipse cx="25.6717" cy="152.336" rx="10.1493" ry="10.1161" fill="#FF720C"/>
<ellipse cx="131.94" cy="310.623" rx="10.1493" ry="10.1161" fill="#5AFF0C"/>
<ellipse cx="287.164" cy="77.953" rx="10.1493" ry="10.1161" fill="#FFD80C"/>
<defs>
<filter id="filter0_d_443_2712" x="79.9299" y="96.2812" width="178.36" height="208.351" filterUnits="userSpaceOnUse" color-interpolation-filters="sRGB">
<feFlood flood-opacity="0" result="BackgroundImageFix"/>
<feColorMatrix in="SourceAlpha" type="matrix" values="0 0 0 0 0 0 0 0 0 0 0 0 0 0 0 0 0 0 127 0" result="hardAlpha"/>
<feOffset dx="2.76907" dy="20.4911"/>
<feGaussianBlur stdDeviation="8.86101"/>
<feComposite in2="hardAlpha" operator="out"/>
<feColorMatrix type="matrix" values="0 0 0 0 0 0 0 0 0 0 0 0 0 0 0 0 0 0 0.3 0"/>
<feBlend mode="normal" in2="BackgroundImageFix" result="effect1_dropShadow_443_2712"/>
<feBlend mode="normal" in="SourceGraphic" in2="effect1_dropShadow_443_2712" result="shape"/>
</filter>
<filter id="filter1_d_443_2712" x="102.424" y="99.9488" width="128.575" height="128.209" filterUnits="userSpaceOnUse" color-interpolation-filters="sRGB">
<feFlood flood-opacity="0" result="BackgroundImageFix"/>
<feColorMatrix in="SourceAlpha" type="matrix" values="0 0 0 0 0 0 0 0 0 0 0 0 0 0 0 0 0 0 127 0" result="hardAlpha"/>
<feOffset dy="-1.44221"/>
<feGaussianBlur stdDeviation="4.08625"/>
<feComposite in2="hardAlpha" operator="out"/>
<feColorMatrix type="matrix" values="0 0 0 0 0 0 0 0 0 0 0 0 0 0 0 0 0 0 0.08 0"/>
<feBlend mode="normal" in2="BackgroundImageFix" result="effect1_dropShadow_443_2712"/>
<feBlend mode="normal" in="SourceGraphic" in2="effect1_dropShadow_443_2712" result="shape"/>
</filter>
<linearGradient id="paint0_linear_443_2712" x1="158.78" y1="328.266" x2="164.301" y2="-4.88153" gradientUnits="userSpaceOnUse">
<stop stop-color="#1088F0"/>
<stop offset="1" stop-color="white"/>
</linearGradient>
<linearGradient id="paint1_linear_443_2712" x1="333.805" y1="170.152" x2="675.734" y2="170.152" gradientUnits="userSpaceOnUse">
<stop stop-color="#00D2FF"/>
<stop offset="1" stop-color="#3A7BD5"/>
</linearGradient>
<linearGradient id="paint2_linear_443_2712" x1="74.2471" y1="103.152" x2="93.4872" y2="103.152" gradientUnits="userSpaceOnUse">
<stop stop-color="#00D2FF"/>
<stop offset="1" stop-color="#3A7BD5"/>
</linearGradient>
<linearGradient id="paint3_linear_443_2712" x1="94.8828" y1="181.35" x2="237.798" y2="181.35" gradientUnits="userSpaceOnUse">
<stop stop-color="#00D2FF"/>
<stop offset="1" stop-color="#3A7BD5"/>
</linearGradient>
<linearGradient id="paint4_linear_443_2712" x1="166.713" y1="109.564" x2="166.713" y2="221.429" gradientUnits="userSpaceOnUse">
<stop stop-color="white"/>
<stop offset="0.2729" stop-color="#FBFCFE"/>
<stop offset="0.5557" stop-color="#EEF3FB"/>
<stop offset="0.8419" stop-color="#DAE5F6"/>
<stop offset="1" stop-color="#CBDAF3"/>
</linearGradient>
<linearGradient id="paint5_linear_443_2712" x1="166.711" y1="214.712" x2="166.711" y2="116.282" gradientUnits="userSpaceOnUse">
<stop stop-color="white"/>
<stop offset="0.2729" stop-color="#FBFCFE"/>
<stop offset="0.5557" stop-color="#EEF3FB"/>
<stop offset="0.8419" stop-color="#DAE5F6"/>
<stop offset="1" stop-color="#CBDAF3"/>
</linearGradient>
<linearGradient id="paint6_linear_443_2712" x1="166.711" y1="206.654" x2="166.711" y2="124.347" gradientUnits="userSpaceOnUse">
<stop stop-color="#323F54"/>
<stop offset="1" stop-color="#1C212E"/>
</linearGradient>
<radialGradient id="paint7_radial_443_2712" cx="0" cy="0" r="1" gradientUnits="userSpaceOnUse" gradientTransform="translate(166.711 165.501) scale(41.2884 41.1534)">
<stop offset="0.95"/>
<stop offset="0.956" stop-color="#040404"/>
<stop offset="0.9623" stop-color="#111111"/>
<stop offset="0.9686" stop-color="#252525"/>
<stop offset="0.975" stop-color="#434343"/>
<stop offset="0.9815" stop-color="#686868"/>
<stop offset="0.988" stop-color="#969696"/>
<stop offset="0.9945" stop-color="#CBCBCB"/>
<stop offset="1" stop-color="white"/>
</radialGradient>
<radialGradient id="paint8_radial_443_2712" cx="0" cy="0" r="1" gradientUnits="userSpaceOnUse" gradientTransform="translate(166.713 165.497) scale(33.2007 33.0921)">
<stop stop-color="#323F54"/>
<stop offset="1" stop-color="#1C212E"/>
</radialGradient>
<radialGradient id="paint9_radial_443_2712" cx="0" cy="0" r="1" gradientUnits="userSpaceOnUse" gradientTransform="translate(166.716 165.499) scale(24.6636 24.583)">
<stop stop-color="#323F54"/>
<stop offset="1" stop-color="#1C212E"/>
</radialGradient>
<radialGradient id="paint10_radial_443_2712" cx="0" cy="0" r="1" gradientUnits="userSpaceOnUse" gradientTransform="translate(166.716 165.499) scale(24.6636 24.583)">
<stop offset="0.5467" stop-color="white"/>
<stop offset="0.6013" stop-color="#FBFBFB"/>
<stop offset="0.6579" stop-color="#EEEEEE"/>
<stop offset="0.7155" stop-color="#DADADA"/>
<stop offset="0.7737" stop-color="#BCBCBC"/>
<stop offset="0.8325" stop-color="#979797"/>
<stop offset="0.8916" stop-color="#696969"/>
<stop offset="0.9501" stop-color="#343434"/>
<stop offset="1"/>
</radialGradient>
<linearGradient id="paint11_linear_443_2712" x1="166.714" y1="132.402" x2="166.714" y2="171.197" gradientUnits="userSpaceOnUse">
<stop offset="0.0239" stop-color="white"/>
<stop offset="1" stop-color="#282C34" stop-opacity="0"/>
</linearGradient>
<linearGradient id="paint12_linear_443_2712" x1="131.143" y1="267.487" x2="200.904" y2="267.487" gradientUnits="userSpaceOnUse">
<stop stop-color="white"/>
<stop offset="1" stop-color="#EEF5FF"/>
<stop offset="1" stop-color="white"/>
</linearGradient>
<clipPath id="clip0_443_2712">
<rect width="328.142" height="335.185" fill="white" transform="translate(-0.814453)"/>
</clipPath>
</defs>
</svg>
