<svg width="29" height="30" viewBox="0 0 29 30" fill="none" xmlns="http://www.w3.org/2000/svg">
<path d="M13.1911 14.1366L12.7509 13.6596L12.3019 14.1284L1.07199 25.855L0.830403 26.1072L0.925541 26.4433C1.07706 26.9785 1.34931 27.472 1.72133 27.886C2.09335 28.3 2.55527 28.6236 3.0717 28.8322C3.58812 29.0408 4.14548 29.1289 4.70119 29.0899C5.25605 29.0509 5.79475 28.8862 6.27624 28.6082C6.27698 28.6078 6.27772 28.6073 6.27846 28.6069L18.9099 21.4366L19.5787 21.057L19.0571 20.4919L13.1911 14.1366Z" fill="white" stroke="#111111" stroke-width="1.22061"/>
<path d="M25.6613 13.1676H26.3981L24.4005 12.0273L18.9362 8.90796L18.5589 8.69257L18.2318 8.97861L12.0813 14.3581L11.586 14.7914L12.0553 15.2527L18.2309 21.3245L18.5598 21.6478L18.9606 21.4197L24.3739 18.339C24.9483 18.0369 25.4298 17.5845 25.7664 17.0301C26.1051 16.4723 26.2843 15.8326 26.2843 15.1803C26.2843 14.528 26.1051 13.8883 25.7664 13.3306C25.7328 13.2752 25.6978 13.2209 25.6613 13.1676Z" fill="white" stroke="#111111" stroke-width="1.22061"/>
<path d="M1.92882 3.57845L1.1887 2.88862L0.923697 3.86505C0.841554 4.16771 0.800609 4.48003 0.801974 4.7936L0.801971 25.5097L0.801976 25.5113C0.802791 25.8222 0.843304 26.1317 0.922529 26.4325L1.1906 27.45L1.9407 26.712L13.5555 15.2857L14.0099 14.8388L13.5436 14.4042L1.92882 3.57845Z" fill="white" stroke="#111111" stroke-width="1.22061"/>
<path d="M12.3983 15.586L12.8263 16.0072L13.2544 15.586L19.0618 9.87289L19.6364 9.30758L18.9364 8.90785L6.32244 1.70468C6.32157 1.70417 6.32069 1.70366 6.31981 1.70315C5.75274 1.37275 5.10819 1.19786 4.45158 1.1961L4.45115 1.1961C3.65409 1.19452 2.87816 1.45274 2.24163 1.93172C1.60507 2.41073 1.14276 3.08433 0.925616 3.8501L0.826974 4.19796L1.08468 4.45158L12.3983 15.586Z" fill="white" stroke="#111111" stroke-width="1.22061"/>
</svg>
