<svg width="40" height="40" viewBox="0 0 40 40" fill="none" xmlns="http://www.w3.org/2000/svg">
<g clip-path="url(#clip0_458_2318)">
<path d="M38.8342 18.8221H38.1494C37.7531 9.95151 30.0388 2.24157 21.168 1.85004V1.16583C21.1061 -0.389194 18.8853 -0.388022 18.824 1.16583V1.85051C9.95479 2.24587 2.2447 9.95706 1.85036 18.8261H1.16583C-0.389194 18.8881 -0.388022 21.1088 1.16583 21.1701H1.85012C2.24259 30.0425 9.95596 37.7564 18.828 38.1498V38.8342C18.8899 40.3893 21.1107 40.3881 21.172 38.8342V38.1498C30.0457 37.7563 37.7595 30.0399 38.1501 21.1661H38.8342C40.3893 21.1043 40.388 18.8835 38.8342 18.8221ZM35.7994 18.8221H30.7449C30.1997 13.7954 26.195 9.79133 21.1681 9.24705V4.2C28.9715 4.77139 35.2232 11.0201 35.7994 18.8221ZM26.5857 21.1661H28.3836C27.8654 24.8993 24.9044 27.8621 21.1721 28.3828V26.5857C21.1101 25.0307 18.8894 25.0319 18.8281 26.5857V28.3839C15.0933 27.8664 12.1293 24.9041 11.6092 21.1701H13.4144C14.9694 21.1082 14.9682 18.8874 13.4144 18.8261H11.6086C12.127 15.0916 15.09 12.1282 18.8242 11.6089V13.4143C18.8861 14.9693 21.1068 14.9682 21.1682 13.4143V11.6089C24.901 12.1279 27.8632 15.0895 28.3831 18.8221H26.5858C25.0307 18.8841 25.0319 21.1048 26.5857 21.1661ZM18.824 4.20062V9.24713C13.7957 9.79157 9.79032 13.7976 9.24682 18.8261H4.20039C4.77452 11.0248 11.023 4.77569 18.824 4.20062ZM4.20008 21.1701H9.24721C9.79258 26.1981 13.7991 30.2029 18.8279 30.7456V35.7998C11.0238 35.2265 4.77248 28.9746 4.20008 21.1701ZM21.172 35.7998V30.7447C26.1984 30.1986 30.2018 26.1934 30.7453 21.1661H35.8002C35.2296 28.9725 28.9775 35.2264 21.172 35.7998Z" fill="#1DB2F3"/>
<path d="M22.4771 18.8237H21.1678V17.5145C21.1058 15.9594 18.8851 15.9606 18.8237 17.5145V18.8237H17.5145C15.9594 18.8857 15.9606 21.1064 17.5145 21.1678H18.8237V22.4771C18.8857 24.0321 21.1064 24.0309 21.1678 22.4771V21.1678H22.4771C24.0321 21.1058 24.0309 18.8851 22.4771 18.8237Z" fill="#1DB2F3"/>
</g>
<defs>
<clipPath id="clip0_458_2318">
<rect width="40" height="40" fill="white"/>
</clipPath>
</defs>
</svg>
