<svg width="40" height="40" viewBox="0 0 40 40" fill="none" xmlns="http://www.w3.org/2000/svg">
<g clip-path="url(#clip0_469_2618)">
<path fill-rule="evenodd" clip-rule="evenodd" d="M13.334 13.3337C13.334 9.65207 16.3176 6.66699 20.0007 6.66699C23.6823 6.66699 26.6673 9.65207 26.6673 13.3337C26.6673 17.0173 23.6823 20.0008 20.0007 20.0008C16.3176 20.0008 13.334 17.0173 13.334 13.3337ZM16.6671 13.3337C16.6671 15.1747 18.1581 16.6673 20.0007 16.6673C21.8417 16.6673 23.3343 15.1747 23.3343 13.3337C23.3343 11.4926 21.8417 10.0006 20.0007 10.0006C18.1581 10.0006 16.6671 11.4926 16.6671 13.3337Z" fill="#FF4050"/>
<path fill-rule="evenodd" clip-rule="evenodd" d="M29.4298 22.7576L28.0673 24.0451C35.0939 25.3377 40.0011 28.2608 40.0011 31.6663C40.0011 36.2695 31.0493 40.0001 20.0005 40.0001C8.95524 40.0001 0 36.2695 0 31.6663C0 28.2623 4.90863 25.3392 11.9333 24.0451L10.5738 22.7611C8.15972 20.347 6.66718 17.0135 6.66718 13.3354C6.66718 5.96866 12.6408 0.00150004 20.001 0C27.3657 0 33.3329 5.97466 33.3329 13.3334L33.3349 13.3319C33.3349 17.014 31.8419 20.3475 29.4298 22.7576ZM20.0005 3.33309C14.4864 3.33509 10.0003 7.82071 10.0003 13.3354C10.0003 16.0044 11.0418 18.514 12.8618 20.3375L20.0005 27.0822L27.0727 20.399C28.9608 18.5125 30.0008 16.0044 29.9993 13.3334C29.9993 7.81921 25.5132 3.33309 20.0005 3.33309ZM3.33359 31.6663C3.33359 32.9519 9.06424 36.6665 20.0005 36.6665C30.9368 36.6665 36.6675 32.9519 36.6675 31.6663C36.6675 30.5963 32.6634 27.8387 24.9907 26.9517L20.0005 31.6663L15.0104 26.9517C7.3377 27.8392 3.33359 30.5963 3.33359 31.6663Z" fill="#FF4050"/>
</g>
<defs>
<clipPath id="clip0_469_2618">
<rect width="40" height="40" fill="white"/>
</clipPath>
</defs>
</svg>
