<svg width="40" height="40" viewBox="0 0 40 40" fill="none" xmlns="http://www.w3.org/2000/svg">
<path d="M27.4845 8.22168H11.2207C10.5995 8.22168 10.0957 8.72543 10.0957 9.34668C10.0957 9.96793 10.5995 10.4717 11.2207 10.4717H27.4857C28.107 10.4717 28.6107 9.96793 28.6107 9.34668C28.6107 8.72543 28.1057 8.22168 27.4845 8.22168Z" fill="#5748FA"/>
<path d="M28.6095 15.6885C28.6095 15.0672 28.1057 14.5635 27.4845 14.5635H11.2207C10.5995 14.5635 10.0957 15.0672 10.0957 15.6885C10.0957 16.3097 10.5995 16.8135 11.2207 16.8135H27.4857C28.1057 16.8135 28.6095 16.3097 28.6095 15.6885Z" fill="#5748FA"/>
<path d="M11.2207 20.9072C10.5995 20.9072 10.0957 21.411 10.0957 22.0322C10.0957 22.6535 10.5995 23.1572 11.2207 23.1572H19.4132C20.0345 23.1572 20.5382 22.6535 20.5382 22.0322C20.5382 21.411 20.0345 20.9072 19.4132 20.9072H11.2207Z" fill="#5748FA"/>
<path d="M14.1417 36.375H7.18043C6.22043 36.375 5.44043 35.5938 5.44043 34.635V5.365C5.44043 4.405 6.22168 3.625 7.18043 3.625H31.5254C32.4842 3.625 33.2654 4.40625 33.2654 5.365V16.0462C33.2654 16.6675 33.7692 17.1713 34.3904 17.1713C35.0117 17.1713 35.5154 16.6675 35.5154 16.0462V5.365C35.5154 3.165 33.7254 1.375 31.5267 1.375H7.18043C4.98043 1.375 3.19043 3.165 3.19043 5.365V34.635C3.19043 36.835 4.98043 38.625 7.18043 38.625H14.1417C14.7629 38.625 15.2667 38.1213 15.2667 37.5C15.2667 36.8787 14.7629 36.375 14.1417 36.375Z" fill="#5748FA"/>
<path d="M35.584 21.1423C33.9515 19.5086 31.2927 19.5086 29.6615 21.1423L19.3177 31.4861C18.9902 31.8136 18.7752 32.2286 18.6977 32.6848L18.1327 36.0386C18.0127 36.7448 18.244 37.4686 18.7502 37.9748C19.1677 38.3936 19.7365 38.6248 20.319 38.6248C20.4415 38.6248 20.564 38.6148 20.6865 38.5936L24.0377 38.0273C24.4952 37.9511 24.9115 37.7373 25.239 37.4086L35.5827 27.0648C37.2165 25.4323 37.2165 22.7748 35.584 21.1423ZM23.6665 35.8086L20.3515 36.4123L20.9077 33.0761L28.3515 25.6323L31.094 28.3748L23.6665 35.8086ZM33.9927 25.4736L32.684 26.7836L29.9415 24.0411L31.2515 22.7311C31.629 22.3536 32.1265 22.1648 32.6227 22.1648C33.119 22.1648 33.6152 22.3536 33.994 22.7311C34.749 23.4886 34.749 24.7173 33.9927 25.4736Z" fill="#5748FA"/>
</svg>
