<svg width="40" height="40" viewBox="0 0 40 40" fill="none" xmlns="http://www.w3.org/2000/svg">
<mask id="mask0_458_423" style="mask-type:luminance" maskUnits="userSpaceOnUse" x="0" y="0" width="40" height="40">
<path d="M0 0H40V40H0V0Z" fill="white"/>
</mask>
<g mask="url(#mask0_458_423)">
<path d="M22.2731 27.2671C27.8479 27.5674 32.0619 28.9517 32.0619 30.6141C32.0619 32.4959 26.6617 34.0215 20.0002 34.0215C13.3386 34.0215 7.93848 32.4959 7.93848 30.6141C7.93848 28.9517 12.1524 27.5674 17.7272 27.2671" stroke="#00B364" stroke-width="2.34375" stroke-miterlimit="10" stroke-linecap="round" stroke-linejoin="round"/>
<path d="M3.97609 29.0717C2.19875 30.0481 1.17188 31.1989 1.17188 32.4313C1.17188 35.9642 9.60156 38.8281 20 38.8281C30.3985 38.8281 38.8281 35.9642 38.8281 32.4313C38.8281 31.1989 37.8013 30.0481 36.024 29.0717" stroke="#00B364" stroke-width="2.34375" stroke-miterlimit="10" stroke-linecap="round" stroke-linejoin="round"/>
<path d="M19.9993 13.3527C18.2283 13.3527 16.7926 11.917 16.7926 10.1461C16.7926 8.37508 18.2283 6.93937 19.9993 6.93937C21.7703 6.93937 23.206 8.37508 23.206 10.1461C23.206 11.917 21.7703 13.3527 19.9993 13.3527ZM19.9993 1.17219C14.63 1.17219 10.2773 5.52476 10.2773 10.8939C10.2773 14.6221 15.7245 24.0031 18.4641 28.4855C19.166 29.6337 20.8326 29.6337 21.5345 28.4855C24.2741 24.0031 29.7213 14.6221 29.7213 10.8939C29.7213 5.52476 25.3686 1.17219 19.9993 1.17219Z" stroke="#00B364" stroke-width="2.34375" stroke-miterlimit="10" stroke-linecap="round" stroke-linejoin="round"/>
</g>
</svg>
