<svg width="40" height="40" viewBox="0 0 40 40" fill="none" xmlns="http://www.w3.org/2000/svg">
<g clip-path="url(#clip0_458_194)">
<path d="M21.8338 1.66699C17.8033 1.68661 13.8932 3.04269 10.7161 5.52279C7.53904 8.00288 5.27442 11.4669 4.27708 15.372L3.05708 13.527C2.94159 13.3338 2.78816 13.1661 2.60607 13.0338C2.42398 12.9015 2.21698 12.8075 1.99757 12.7575C1.77816 12.7074 1.55088 12.7022 1.32943 12.7424C1.10798 12.7825 0.896949 12.8671 0.709069 12.991C0.521189 13.1149 0.360349 13.2755 0.236248 13.4633C0.112147 13.651 0.0273568 13.862 -0.0130103 14.0834C-0.0533774 14.3048 -0.0484848 14.5321 0.00137243 14.7515C0.0512297 14.971 0.145019 15.1781 0.277084 15.3603L3.94375 20.917C4.19845 21.2734 4.57397 21.5251 5.00042 21.6253C5.43586 21.7117 5.88783 21.625 6.26042 21.3837L11.7604 17.6787C11.9501 17.5602 12.1139 17.4049 12.2423 17.2218C12.3706 17.0388 12.4608 16.8317 12.5075 16.6131C12.5542 16.3945 12.5565 16.1687 12.5141 15.9491C12.4717 15.7296 12.3856 15.5209 12.2609 15.3353C12.1362 15.1498 11.9754 14.9912 11.7882 14.869C11.6009 14.7469 11.391 14.6637 11.1709 14.6243C10.9508 14.585 10.7251 14.5903 10.5071 14.64C10.2891 14.6897 10.0834 14.7828 9.90208 14.9137L7.40042 16.6003C8.06622 13.8976 9.4783 11.4365 11.4756 9.49777C13.4728 7.55902 15.9748 6.2207 18.6961 5.63551C21.4174 5.05033 24.2483 5.24184 26.866 6.1882C29.4837 7.13456 31.7826 8.79765 33.5006 10.9877C35.2185 13.1778 36.2863 15.8067 36.582 18.5744C36.8777 21.3422 36.3896 24.1373 35.1731 26.6409C33.9567 29.1445 32.0611 31.2558 29.7024 32.7339C27.3438 34.212 24.6172 34.9973 21.8338 35.0003C19.4477 34.9939 17.0984 34.4114 14.9857 33.3024C12.8729 32.1933 11.0592 30.5906 9.69875 28.6303C9.5769 28.4432 9.4187 28.2825 9.23355 28.1577C9.04839 28.033 8.84004 27.9467 8.62089 27.9039C8.40173 27.8612 8.17623 27.863 7.95777 27.9092C7.73931 27.9553 7.53234 28.0448 7.34916 28.1725C7.16598 28.3002 7.01032 28.4634 6.89143 28.6523C6.77253 28.8413 6.69282 29.0523 6.65702 29.2727C6.62123 29.4931 6.63008 29.7184 6.68306 29.9353C6.73604 30.1522 6.83206 30.3562 6.96542 30.5353C9.17719 33.7239 12.3535 36.119 16.0274 37.3685C19.7014 38.6179 23.6793 38.6559 27.3764 37.4769C31.0736 36.2978 34.2951 33.9639 36.5674 30.8182C38.8397 27.6724 40.043 23.8807 40.0004 20.0003C40.0168 15.1618 38.1134 10.5144 34.7077 7.07747C31.3021 3.64054 26.6722 1.69477 21.8338 1.66699Z" fill="#B97A66"/>
<path d="M21.6667 9.91699C21.2246 9.91699 20.8007 10.0926 20.4882 10.4051C20.1756 10.7177 20 11.1416 20 11.5837V20.0003C20.0071 20.4409 20.1817 20.8622 20.4883 21.1787L25.4883 26.2237C25.8021 26.5325 26.2241 26.7065 26.6643 26.7087C27.1045 26.7109 27.5282 26.541 27.845 26.2353C28.1588 25.9241 28.3361 25.501 28.338 25.0591C28.3399 24.6171 28.1661 24.1925 27.855 23.8787L23.3333 19.3153V11.5837C23.3333 11.1416 23.1577 10.7177 22.8452 10.4051C22.5326 10.0926 22.1087 9.91699 21.6667 9.91699Z" fill="#B97A66"/>
</g>
<defs>
<clipPath id="clip0_458_194">
<rect width="40" height="40" fill="white"/>
</clipPath>
</defs>
</svg>
